<?xml version="1.0" standalone="no"?>
<!DOCTYPE svg PUBLIC "-//W3C//DTD SVG 1.1//EN" "http://www.w3.org/Graphics/SVG/1.1/DTD/svg11.dtd" >
<svg>
<metadata>
Created by FontForge 20120731 at Sun Apr  6 15:33:31 2014
 By World Wide Web Server
Asap is based on Ancha (designed by Pablo Cosgaya &#38; Hector Gatti). This family, specially developed for screen and desktop use, offers of a standarised character width on all styles, which helps retain the same length on all text lines. 
</metadata>
<defs>
<font id="Asap-BoldItalic" horiz-adv-x="320" >
  <font-face 
    font-family="Asap"
    font-weight="700"
    font-style="italic"
    font-stretch="normal"
    units-per-em="1000"
    panose-1="2 0 5 3 4 0 0 9 0 4"
    ascent="800"
    descent="-200"
    x-height="523"
    cap-height="702"
    bbox="-124 -212 1000 934"
    underline-thickness="70"
    underline-position="-23"
    slope="-6"
    stemh="107"
    stemv="161"
    unicode-range="U+0020-FB02"
  />
<missing-glyph horiz-adv-x="1000" 
 />
    <glyph glyph-name=".notdef" horiz-adv-x="1000" 
 />
    <glyph glyph-name="space" unicode=" " horiz-adv-x="240" 
 />
    <glyph glyph-name="exclam" unicode="!" horiz-adv-x="294" 
d="M196 254c-5 -21 -13 -32 -54 -32h-11c-43 0 -48 10 -48 32l44 416c2 21 21 32 63 32h43c40 0 58 -11 58 -29c0 -2 -3 -33 -95 -419zM40 30l10 92c2 21 21 32 63 32h32c43 0 57 -11 57 -32l-10 -92c-2 -21 -21 -32 -63 -32h-32c-43 0 -57 11 -57 32z" />
    <glyph glyph-name="quotedbl" unicode="&#x22;" horiz-adv-x="319" 
d="M177 494v176c0 21 21 32 63 32h7c43 0 57 -11 57 -32c0 -6 -41 -176 -41 -176c-5 -21 -16 -30 -37 -30h-15c-21 0 -34 9 -34 30zM31 494v176c0 21 21 32 63 32h7c43 0 57 -11 57 -32c0 -6 -41 -176 -41 -176c-5 -21 -16 -30 -37 -30h-15c-21 0 -34 9 -34 30z" />
    <glyph glyph-name="numbersign" unicode="#" horiz-adv-x="534" 
d="M64 183h-43c-17 0 -25 10 -25 33c0 24 1 77 36 77h63l33 110h-48c-18 0 -26 10 -26 34s3 76 37 76h68l41 142c6 21 28 31 60 31h13c32 0 42 -8 42 -22c0 -2 0 -6 -43 -151h94l41 142c6 21 28 31 60 31h13c32 0 42 -8 42 -22c0 -2 0 -6 -43 -151h33c17 0 26 -11 26 -34
c0 -24 -3 -76 -37 -76h-53l-33 -110h42c17 0 26 -11 26 -34c0 -24 -3 -76 -37 -76h-62l-45 -154c-6 -21 -27 -31 -59 -31h-13c-34 0 -42 8 -42 23c0 3 0 7 46 162h-94l-45 -154c-6 -21 -27 -31 -59 -31h-13c-34 0 -43 8 -43 23c0 3 0 5 47 162zM208 293h94l33 110h-94z" />
    <glyph glyph-name="dollar" unicode="$" horiz-adv-x="496" 
d="M332 745l-4 -38c92 -4 152 -37 152 -67c0 -26 -40 -89 -64 -89c-13 0 -40 23 -102 25l-16 -156c76 -35 168 -75 168 -187c0 -168 -111 -228 -213 -239l-5 -49c-2 -14 -10 -20 -22 -20h-17c-15 0 -18 6 -18 20l5 48c-68 3 -172 24 -172 77c0 101 15 111 26 111
c18 0 63 -58 154 -58h5l18 166c-81 34 -180 74 -180 194c0 150 111 212 224 223l4 39c1 14 8 20 22 20h17c14 0 18 -6 18 -20zM196 510c0 -28 19 -47 47 -63l13 124c-53 -12 -60 -44 -60 -61zM317 203c0 24 -15 42 -36 57l-14 -127c28 10 50 31 50 70z" />
    <glyph glyph-name="percent" unicode="%" horiz-adv-x="765" 
d="M197 372c-64 0 -135 24 -135 136c0 167 99 200 170 200c64 0 134 -24 134 -135c0 -167 -97 -201 -169 -201zM123 25l426 650c11 17 25 27 46 27h44c13 0 20 -6 20 -12c0 -4 -2 -9 -6 -15l-426 -650c-11 -17 -25 -27 -46 -27h-44c-14 0 -20 5 -20 12c0 4 2 9 6 15z
M205 454c47 0 58 71 58 111c0 30 -9 57 -40 57c-46 0 -58 -62 -58 -105c0 -32 8 -63 40 -63zM544 -8c-64 0 -134 24 -134 135c0 167 96 201 169 201c64 0 135 -25 135 -137c0 -166 -99 -199 -170 -199zM552 74c45 0 58 68 58 108c0 32 -9 60 -40 60c-47 0 -58 -65 -58 -108
c0 -31 9 -60 40 -60z" />
    <glyph glyph-name="ampersand" unicode="&#x26;" horiz-adv-x="624" 
d="M211 499c0 -44 34 -73 95 -73h94l9 75c2 21 24 32 63 32h27c40 0 57 -15 57 -31l-8 -76h59c14 0 16 -6 16 -20c0 -37 -19 -97 -58 -97h-29s-17 -164 -17 -167c0 -23 9 -33 30 -33c19 0 33 6 38 6c6 0 8 -2 8 -11c0 -2 -1 -25 -7 -60c-6 -37 -53 -52 -88 -52
c-45 0 -80 12 -103 40c-58 -27 -108 -40 -186 -40c-124 0 -205 68 -205 185c0 94 46 173 136 206v4c-48 21 -78 66 -78 125c0 119 92 196 224 196c44 0 106 -3 106 -39c0 -49 -30 -85 -44 -85c-5 0 -25 7 -48 7c-56 0 -91 -37 -91 -92zM246 109c34 0 77 7 124 26
c3 43 18 174 18 174h-103c-87 0 -129 -42 -129 -116c0 -54 35 -84 90 -84z" />
    <glyph glyph-name="quotesingle" unicode="'" horiz-adv-x="183" 
d="M41 494v176c0 21 21 32 63 32h7c43 0 57 -11 57 -32c0 -6 -41 -176 -41 -176c-5 -21 -16 -30 -37 -30h-15c-21 0 -34 9 -34 30z" />
    <glyph glyph-name="parenleft" unicode="(" horiz-adv-x="301" 
d="M46 200c0 199 72 402 205 567c9 11 19 16 29 16c19 0 52 -22 52 -44c0 -6 -3 -15 -7 -22c-116 -181 -163 -348 -163 -527c0 -110 20 -208 71 -332c2 -5 3 -10 3 -14c0 -25 -37 -52 -62 -52c-10 0 -18 5 -25 16c-68 114 -103 250 -103 392z" />
    <glyph glyph-name="parenright" unicode=")" horiz-adv-x="301" 
d="M246 287c-18 -174 -88 -340 -200 -479c-9 -11 -19 -16 -29 -16c-19 0 -51 22 -51 44c0 6 2 13 7 21c113 183 161 340 161 531c0 109 -17 200 -71 329c-2 5 -4 9 -4 14c0 25 38 52 63 52c10 0 18 -5 25 -16c68 -115 104 -249 104 -389c0 -30 -2 -61 -5 -91z" />
    <glyph glyph-name="asterisk" unicode="*" horiz-adv-x="373" 
d="M40 602c6 13 15 21 27 21c4 0 9 -1 14 -2l74 -25l9 82c2 21 12 30 33 30c23 0 27 -10 27 -30l-9 -82l78 25c5 1 9 2 13 2c12 0 25 -11 25 -31c0 -16 -6 -24 -24 -29l-79 -24l49 -79c4 -6 6 -12 6 -17c0 -12 -20 -32 -36 -32c-8 0 -16 5 -22 15l-50 83l-68 -83
c-9 -11 -17 -15 -24 -15c-14 0 -31 16 -31 28c0 6 4 14 11 21l64 79l-72 24c-13 4 -19 12 -19 22c0 5 1 11 4 17z" />
    <glyph glyph-name="plus" unicode="+" horiz-adv-x="560" 
d="M39 216c0 24 3 73 37 73h151l16 154c2 21 18 30 53 30h14c37 0 47 -9 47 -30l-16 -154h153c18 0 26 -11 26 -36s-1 -71 -37 -71h-153l-16 -152c-2 -21 -18 -30 -53 -30h-14c-37 0 -47 9 -47 30l16 152h-151c-18 0 -26 10 -26 34z" />
    <glyph glyph-name="comma" unicode="," horiz-adv-x="198" 
d="M45 110c2 27 22 44 64 44h19c40 0 56 -17 56 -40c0 -85 -116 -239 -163 -239c-17 0 -42 5 -42 20c0 32 51 75 66 215z" />
    <glyph glyph-name="hyphen" unicode="-" 
d="M26 246c0 24 3 73 37 73h204c17 0 26 -11 26 -34s-4 -73 -37 -73h-204c-18 0 -26 10 -26 34z" />
    <glyph glyph-name="period" unicode="." horiz-adv-x="198" 
d="M17 30l9 92c2 21 23 32 64 32h32c43 0 56 -12 56 -32l-9 -92c-2 -21 -23 -32 -64 -32h-32c-45 0 -56 10 -56 32z" />
    <glyph glyph-name="slash" unicode="/" horiz-adv-x="370" 
d="M-63 -49l365 721c11 22 34 30 65 30h24c28 0 40 -6 40 -15c0 -4 -2 -9 -5 -15l-366 -721c-11 -22 -35 -30 -64 -30h-24c-28 0 -41 6 -41 15c0 3 2 8 6 15z" />
    <glyph glyph-name="zero" unicode="0" horiz-adv-x="535" 
d="M229 -8c-130 0 -204 102 -204 279c0 272 118 437 279 437c130 0 204 -103 204 -282c0 -270 -120 -434 -279 -434zM241 109c60 0 118 114 118 332c0 99 -23 150 -67 150c-61 0 -118 -116 -118 -335c0 -97 23 -147 67 -147z" />
    <glyph glyph-name="one" unicode="1" horiz-adv-x="535" 
d="M446 0h-388c-18 0 -26 11 -26 36c0 46 9 81 38 81h133l47 449l-138 -20c-20 0 -24 31 -24 59c0 30 1 48 30 53l253 46c17 0 39 -12 39 -24l-59 -563h107c18 0 26 -11 26 -36c0 -46 -9 -81 -38 -81z" />
    <glyph glyph-name="two" unicode="2" horiz-adv-x="535" 
d="M196 117h238c18 0 26 -11 26 -36c0 -46 -9 -81 -39 -81h-387c-15 0 -28 54 -28 85c0 8 1 14 3 18l286 310c26 28 48 70 48 105c0 48 -35 72 -85 72c-70 0 -103 -43 -121 -43c-29 0 -50 38 -50 64c0 67 123 97 201 97c128 0 206 -78 206 -171c0 -106 -60 -169 -298 -420z
" />
    <glyph glyph-name="three" unicode="3" horiz-adv-x="535" 
d="M215 -8c-52 0 -174 6 -174 63c0 72 13 94 24 94c13 0 55 -40 139 -40c65 0 110 42 110 115c0 54 -31 85 -107 85h-29c-18 0 -26 11 -26 36c0 46 9 81 39 81h19c71 0 113 39 113 96c0 41 -24 68 -73 68c-76 0 -104 -31 -122 -31c-19 0 -42 45 -42 73c0 52 102 76 202 76
c117 0 188 -59 188 -154c0 -79 -45 -141 -110 -167v-4c67 -27 98 -82 98 -152c0 -149 -109 -239 -249 -239z" />
    <glyph glyph-name="four" unicode="4" horiz-adv-x="535" 
d="M474 142h-38l-12 -112c-2 -21 -21 -32 -63 -32h-28c-43 0 -57 11 -57 32l12 112h-262c-16 0 -27 57 -27 86c0 7 1 16 3 18l342 437c13 17 34 19 63 19h27c43 0 57 -11 57 -32l-43 -411h39c18 0 26 -11 26 -36c0 -46 -9 -81 -39 -81zM150 259h150l24 229l-4 1z" />
    <glyph glyph-name="five" unicode="5" horiz-adv-x="535" 
d="M208 109c73 0 118 46 118 124c0 57 -32 90 -114 90h-109c-24 0 -34 6 -34 29c0 3 5 35 51 308c5 28 17 40 47 40h295c18 0 26 -11 26 -36c0 -46 -9 -81 -39 -81h-202l-25 -143h26c139 0 230 -44 230 -185c0 -200 -152 -263 -282 -263c-49 0 -161 6 -161 63
c0 72 13 94 24 94c14 0 52 -40 149 -40z" />
    <glyph glyph-name="six" unicode="6" horiz-adv-x="535" 
d="M255 473c-16 -20 -31 -43 -43 -70c41 21 74 25 103 25c69 0 177 -44 177 -182c0 -184 -144 -254 -261 -254c-104 0 -211 57 -211 217c0 386 369 495 404 495c31 0 41 -53 41 -77c0 -19 -3 -24 -15 -27c-10 -3 -119 -33 -195 -127zM260 311c-27 0 -55 -10 -82 -24
c-4 -26 -8 -54 -8 -78c0 -74 32 -100 74 -100c52 0 97 50 97 120c0 51 -29 82 -81 82z" />
    <glyph glyph-name="seven" unicode="7" horiz-adv-x="535" 
d="M92 583c-19 0 -27 11 -27 36c0 46 9 81 39 81h396c10 0 21 -48 21 -80c0 -9 -1 -18 -3 -23l-319 -579c-9 -16 -31 -20 -60 -20h-42c-25 0 -56 0 -56 19c0 5 2 11 7 19l305 547h-261z" />
    <glyph glyph-name="eight" unicode="8" horiz-adv-x="535" 
d="M11 174c0 81 39 169 121 201c-36 26 -60 62 -60 121c0 106 80 212 241 212c122 0 190 -70 190 -156c0 -95 -51 -140 -104 -167c53 -25 92 -72 92 -159c0 -98 -62 -234 -258 -234c-157 0 -222 83 -222 182zM296 591c-38 0 -77 -26 -77 -78c0 -43 32 -64 74 -81
c41 25 64 61 64 100c0 37 -27 59 -61 59zM243 109c47 0 97 41 97 103c0 63 -38 85 -110 114c-39 -26 -68 -67 -68 -133c0 -51 29 -84 81 -84z" />
    <glyph glyph-name="nine" unicode="9" horiz-adv-x="535" 
d="M277 227c16 20 31 43 43 70c-41 -21 -74 -25 -103 -25c-69 0 -177 44 -177 182c0 184 144 254 261 254c104 0 211 -57 211 -217c0 -386 -369 -495 -404 -495c-31 0 -41 53 -41 77c0 19 3 24 15 27c10 3 119 33 195 127zM272 389c27 0 55 10 82 24c4 26 8 54 8 78
c0 74 -32 100 -74 100c-52 0 -97 -50 -97 -120c0 -51 29 -82 81 -82z" />
    <glyph glyph-name="colon" unicode=":" horiz-adv-x="198" 
d="M36 401l10 92c2 21 21 32 63 32h32c43 0 57 -11 57 -32l-10 -92c-2 -21 -21 -32 -63 -32h-32c-43 0 -57 11 -57 32zM-2 30l9 92c2 21 21 32 63 32h32c43 0 57 -11 57 -32l-10 -92c-2 -21 -21 -32 -63 -32h-32c-43 0 -56 11 -56 32z" />
    <glyph glyph-name="semicolon" unicode=";" horiz-adv-x="198" 
d="M42 401l10 92c1 21 21 32 63 32h32c43 0 57 -11 57 -32l-10 -92c-2 -21 -21 -32 -63 -32h-32c-43 0 -57 11 -57 32zM25 110c2 27 22 44 64 44h19c40 0 56 -17 56 -40c0 -85 -116 -239 -163 -239c-17 0 -42 5 -42 20c0 32 51 75 66 215z" />
    <glyph glyph-name="less" unicode="&#x3c;" horiz-adv-x="560" 
d="M36 227c0 27 8 59 35 70l438 179c4 1 8 2 11 2c11 0 16 -8 16 -25c0 -29 -5 -79 -39 -92l-304 -116l280 -116c18 -8 25 -24 25 -47c0 -17 -2 -71 -27 -71c-3 0 -6 1 -10 3l-401 180c-16 7 -24 16 -24 33z" />
    <glyph glyph-name="equal" unicode="=" horiz-adv-x="560" 
d="M47 301c0 24 3 73 37 73h420c17 0 26 -11 26 -34s-4 -73 -37 -73h-420c-18 0 -26 10 -26 34zM28 120c0 24 3 73 37 73h420c17 0 26 -11 26 -34s-4 -73 -37 -73h-420c-18 0 -26 10 -26 34z" />
    <glyph glyph-name="greater" unicode="&#x3e;" horiz-adv-x="560" 
d="M517 263c0 -27 -8 -59 -35 -70l-438 -179c-4 -1 -8 -2 -11 -2c-11 0 -16 8 -16 25c0 29 5 79 39 92l304 116l-280 116c-18 7 -25 24 -25 47c0 17 2 71 27 71c3 0 6 -1 10 -3l401 -180c16 -7 24 -16 24 -33z" />
    <glyph glyph-name="question" unicode="?" horiz-adv-x="445" 
d="M184 222h-23c-37 0 -46 8 -46 29c0 128 183 198 183 277c0 30 -21 48 -68 48c-58 0 -101 -31 -115 -31c-27 0 -55 57 -55 80c0 60 120 83 197 83c125 0 199 -59 199 -156c0 -172 -187 -203 -216 -303c-9 -21 -23 -27 -56 -27zM76 30l9 92c2 21 22 32 64 32h32
c43 0 56 -11 56 -32l-9 -92c-2 -21 -23 -32 -64 -32h-32c-45 0 -56 10 -56 32z" />
    <glyph glyph-name="at" unicode="@" horiz-adv-x="974" 
d="M410 -123c-194 0 -326 147 -326 363c0 263 197 468 450 468c201 0 333 -129 333 -325c0 -181 -102 -325 -233 -325c-70 0 -100 28 -114 64c-22 -37 -63 -64 -113 -64c-81 0 -135 63 -135 181c0 161 76 269 185 269c48 0 85 -28 102 -45c7 28 15 40 52 40h12
c34 0 47 -10 47 -26c0 -5 -31 -282 -31 -300c0 -24 11 -36 35 -36c70 0 129 111 129 242c0 163 -108 271 -269 271c-216 0 -386 -182 -386 -414c0 -184 106 -309 262 -309c98 0 136 31 149 31c4 0 6 -3 6 -12c0 -2 -1 -16 -3 -26c-8 -41 -119 -47 -152 -47zM454 159
c27 0 48 22 65 48l13 131c2 17 8 49 8 49c-14 13 -31 23 -54 23c-56 0 -89 -56 -89 -163c0 -58 19 -88 57 -88z" />
    <glyph glyph-name="A" unicode="A" horiz-adv-x="613" 
d="M-31 38l291 643c7 16 30 21 59 21h52c29 0 51 -5 55 -21l158 -643c1 -3 3 -14 3 -17c0 -14 -19 -23 -54 -23h-44c-30 0 -50 5 -54 21l-29 122h-242l-55 -122c-7 -15 -24 -21 -48 -21h-40c-39 0 -58 7 -58 20c0 6 2 12 6 20zM301 451l-80 -178h154l-40 178
c-4 13 -8 64 -8 64h-4s-14 -47 -22 -64z" />
    <glyph glyph-name="B" unicode="B" horiz-adv-x="593" 
d="M105 660c3 28 16 40 44 40h198c156 0 219 -62 219 -154c0 -79 -54 -146 -125 -175v-4c73 -15 119 -77 119 -147c0 -140 -102 -220 -272 -220h-212c-27 0 -36 8 -36 32c0 9 4 37 65 628zM234 421h69c65 0 101 39 101 86c0 42 -27 63 -83 63h-71zM203 131h98
c60 0 101 32 101 90c0 46 -35 69 -100 69h-82z" />
    <glyph glyph-name="C" unicode="C" horiz-adv-x="619" 
d="M417 708c86 0 202 -27 202 -68c0 -27 -50 -96 -75 -96c-12 0 -49 32 -144 32c-128 0 -199 -93 -199 -278c0 -115 49 -175 150 -175c113 0 187 55 201 55c6 0 12 -2 12 -15c0 -7 -1 -47 -10 -95c-12 -62 -168 -76 -217 -76c-200 0 -295 90 -295 284c0 230 91 432 375 432z
" />
    <glyph glyph-name="D" unicode="D" horiz-adv-x="695" 
d="M40 33l65 627c3 28 16 40 44 40h224c187 0 287 -102 287 -289c0 -265 -141 -411 -360 -411h-224c-27 0 -36 9 -36 33zM204 131h109c115 0 188 94 188 266c0 112 -47 172 -141 172h-109z" />
    <glyph glyph-name="E" unicode="E" horiz-adv-x="546" 
d="M149 700h366c18 0 26 -12 26 -40c0 -52 -9 -91 -38 -91h-252l-16 -145h224c18 0 26 -12 26 -40c0 -52 -9 -91 -38 -91h-225l-18 -162h252c18 0 26 -12 26 -40c0 -52 -9 -91 -38 -91h-368c-27 0 -36 8 -36 32c0 6 65 628 65 628c3 28 16 40 44 40z" />
    <glyph glyph-name="F" unicode="F" horiz-adv-x="503" 
d="M134 -2h-35c-17 0 -57 2 -57 31c16 156 66 631 66 631c3 28 16 40 44 40h335c18 0 26 -12 26 -40c0 -52 -9 -91 -38 -91h-221l-16 -146h213c18 0 26 -12 26 -40c0 -52 -9 -91 -38 -91h-214l-28 -262c-2 -21 -24 -32 -63 -32z" />
    <glyph glyph-name="G" unicode="G" horiz-adv-x="672" 
d="M442 258h-87c-18 0 -26 12 -26 40c0 52 9 91 38 91h204c27 0 37 -8 37 -31l-31 -287c-8 -69 -171 -79 -241 -79c-200 0 -295 90 -295 284c0 289 134 432 375 432c86 0 203 -27 203 -68c0 -27 -50 -96 -75 -96c-12 0 -49 32 -145 32c-128 0 -199 -93 -199 -278
c0 -115 49 -175 150 -175c28 0 51 2 78 7z" />
    <glyph glyph-name="H" unicode="H" horiz-adv-x="733" 
d="M689 671l-67 -641c-2 -21 -24 -32 -63 -32h-35c-17 0 -57 2 -57 31l27 262h-270l-27 -261c-2 -21 -24 -32 -63 -32h-35c-17 0 -57 2 -57 31l67 641c2 21 24 32 63 32h35c17 0 57 -2 57 -31l-26 -248h270l26 247c2 21 24 32 63 32h35c17 0 57 -2 57 -31z" />
    <glyph glyph-name="I" unicode="I" horiz-adv-x="282" 
d="M252 671l-67 -641c-2 -21 -24 -32 -63 -32h-35c-17 0 -57 2 -57 31l67 641c2 21 24 32 63 32h35c17 0 57 -2 57 -31z" />
    <glyph glyph-name="J" unicode="J" horiz-adv-x="402" 
d="M161 227l47 443c2 21 24 32 63 32h35c17 0 57 -2 57 -31l-50 -469c-14 -127 -85 -210 -234 -210c-40 0 -96 6 -96 43c0 86 13 97 20 97c8 0 19 -9 63 -9c60 0 87 31 95 104z" />
    <glyph glyph-name="K" unicode="K" horiz-adv-x="576" 
d="M35 30l67 640c2 21 21 32 63 32h35c43 0 57 -11 57 -32l-28 -268l4 -1l203 282c11 15 33 19 62 19h47c38 0 55 -6 55 -14c0 -5 -3 -13 -10 -22l-224 -296l183 -336c4 -8 6 -14 6 -18c0 -11 -13 -18 -57 -18h-58c-32 0 -52 4 -59 19l-157 304l-4 -1l-30 -290
c-2 -21 -21 -32 -63 -32h-35c-43 0 -57 11 -57 32z" />
    <glyph glyph-name="L" unicode="L" horiz-adv-x="484" 
d="M36 32l67 638c2 21 24 32 63 32h35c17 0 57 -2 57 -31l-57 -540h223c18 0 26 -12 26 -40c0 -52 -9 -91 -38 -91h-340c-27 0 -36 8 -36 32z" />
    <glyph glyph-name="M" unicode="M" horiz-adv-x="843" 
d="M41 30l67 640c2 21 21 32 63 32h53c29 0 52 -7 61 -27l143 -313l211 313c13 20 36 27 65 27h52c43 0 57 -11 57 -32l-67 -640c-2 -21 -21 -32 -63 -32h-29c-43 0 -57 11 -57 32l43 414l-4 1l-172 -259c-10 -12 -23 -19 -42 -19h-29c-19 0 -30 7 -38 19l-118 259l-4 -1
l-43 -414c-2 -21 -21 -32 -63 -32h-29c-43 0 -57 11 -57 32z" />
    <glyph glyph-name="N" unicode="N" horiz-adv-x="719" 
d="M35 30l67 640c2 21 21 32 63 32h43c29 0 51 -4 64 -27l220 -405l42 400c2 21 21 32 63 32h29c43 0 57 -11 57 -32l-67 -640c-2 -21 -21 -32 -63 -32h-38c-29 0 -51 4 -64 27l-225 410l-42 -405c-2 -21 -21 -32 -63 -32h-29c-43 0 -57 11 -57 32z" />
    <glyph glyph-name="O" unicode="O" horiz-adv-x="731" 
d="M41 284c0 212 99 424 362 424c186 0 286 -104 286 -294c0 -271 -127 -422 -361 -422c-186 0 -287 103 -287 292zM342 123c114 0 189 98 189 277c0 115 -48 176 -142 176c-116 0 -189 -98 -189 -278c0 -114 48 -175 142 -175z" />
    <glyph glyph-name="P" unicode="P" horiz-adv-x="570" 
d="M34 30l66 630c3 28 16 40 44 40h217c83 0 217 -23 217 -183c0 -226 -185 -255 -253 -255h-113l-24 -232c-2 -21 -21 -32 -63 -32h-34c-43 0 -57 11 -57 32zM226 394h96c40 0 97 17 97 102c0 59 -43 73 -78 73h-96z" />
    <glyph glyph-name="Q" unicode="Q" horiz-adv-x="731" 
d="M41 286c0 213 102 422 363 422c186 0 285 -104 285 -294c0 -191 -75 -325 -193 -383l-1 -4l142 -54c13 -5 17 -13 17 -27c0 -101 -18 -108 -29 -108c-10 0 -229 94 -433 178c-99 41 -150 133 -151 270zM342 119c115 0 189 100 189 284c0 113 -48 173 -141 173
c-116 0 -190 -99 -190 -279c0 -116 48 -178 142 -178z" />
    <glyph glyph-name="R" unicode="R" horiz-adv-x="610" 
d="M35 30l66 630c3 28 16 40 44 40h195c160 0 231 -59 231 -163c0 -90 -54 -155 -135 -184v-4c23 -10 49 -49 62 -92l65 -220c2 -8 3 -14 3 -19c-2 -12 -21 -20 -62 -20h-41c-30 0 -51 5 -56 21l-59 195c-15 40 -29 60 -94 60h-39l-26 -244c-2 -21 -21 -32 -63 -32h-34
c-43 0 -57 11 -57 32zM229 407h95c43 0 86 42 86 94c0 42 -27 68 -76 68h-88z" />
    <glyph glyph-name="S" unicode="S" horiz-adv-x="500" 
d="M309 708c104 0 173 -36 173 -68c0 -26 -40 -89 -64 -89c-13 0 -42 25 -109 25c-87 0 -99 -44 -99 -66c0 -101 258 -69 258 -269s-139 -249 -250 -249c-64 0 -192 20 -192 78c0 101 15 111 26 111c18 0 63 -58 154 -58c43 0 101 14 101 80c0 105 -258 73 -258 272
c0 179 137 233 260 233z" />
    <glyph glyph-name="T" unicode="T" horiz-adv-x="549" 
d="M72 700h474c18 0 26 -12 26 -40c0 -52 -9 -91 -38 -91h-160l-57 -539c-2 -21 -24 -32 -63 -32h-35c-17 0 -57 2 -57 31l57 540h-159c-18 0 -26 12 -26 40c0 52 9 91 38 91z" />
    <glyph glyph-name="U" unicode="U" horiz-adv-x="712" 
d="M98 670c2 21 23 32 64 32h34c43 0 56 -12 56 -32c-45 -431 -45 -436 -45 -441c0 -62 49 -106 124 -106c80 0 143 51 150 121l44 426c2 21 23 32 64 32h33c43 0 56 -12 56 -32l-45 -436c-16 -154 -134 -242 -316 -242c-169 0 -266 75 -266 209c0 20 1 21 47 469z" />
    <glyph glyph-name="V" unicode="V" horiz-adv-x="617" 
d="M190 19l-149 643c-1 4 -2 8 -2 11c0 26 35 29 63 29h33c29 0 51 -7 56 -29l97 -468h4l199 468c9 21 34 29 62 29h31c23 0 57 -1 57 -24c0 -5 -1 -10 -4 -16l-283 -643c-7 -16 -29 -21 -58 -21h-52c-30 0 -50 5 -54 21z" />
    <glyph glyph-name="W" unicode="W" horiz-adv-x="882" 
d="M121 19c-92 645 -92 648 -92 650c0 20 14 33 65 33h26c39 0 61 -10 64 -31l41 -322l16 -144l49 144l117 332c6 16 25 21 57 21h38c32 0 51 -5 53 -21l44 -332l19 -151c18 55 36 113 49 151l112 322c7 21 31 31 70 31h11c42 0 60 -10 60 -25c0 -4 -2 -10 -4 -16l-230 -642
c-5 -14 -30 -21 -57 -21h-73c-29 0 -51 7 -53 21l-55 414l-145 -414c-6 -14 -29 -21 -57 -21h-72c-32 0 -52 7 -53 21z" />
    <glyph glyph-name="X" unicode="X" horiz-adv-x="611" 
d="M-20 42l239 323l-152 293c-4 8 -6 15 -6 20c0 23 32 24 64 24h41c29 0 50 -4 58 -19l95 -186l139 186c13 17 34 19 63 19h39c24 0 59 0 59 -20c0 -6 -3 -14 -10 -24l-220 -295l166 -321c3 -7 5 -14 5 -19c0 -23 -34 -25 -63 -25h-39c-35 0 -51 4 -58 19l-111 215
l-160 -215c-14 -18 -34 -19 -63 -19h-38c-25 0 -59 0 -59 20c0 6 3 14 11 24z" />
    <glyph glyph-name="Y" unicode="Y" horiz-adv-x="559" 
d="M171 30l32 306l-165 321c-4 8 -6 15 -6 21c0 23 32 24 64 24h43c29 0 51 -4 58 -19l100 -214l145 214c10 15 33 19 62 19h36c23 0 61 -2 61 -20c0 -6 -4 -15 -11 -25l-233 -324l-32 -303c-2 -21 -21 -32 -63 -32h-34c-43 0 -57 11 -57 32z" />
    <glyph glyph-name="Z" unicode="Z" horiz-adv-x="616" 
d="M601 598l-382 -467h305c18 0 26 -12 26 -40c0 -52 -9 -91 -38 -91h-479c-19 0 -32 59 -32 87c0 8 1 13 3 15l381 467h-278c-18 0 -26 12 -26 40c0 52 9 91 38 91h453c19 0 32 -59 32 -87c0 -8 -1 -13 -3 -15z" />
    <glyph glyph-name="bracketleft" unicode="[" horiz-adv-x="291" 
d="M269 673h-51l-75 -716h52c17 0 26 -10 26 -30c0 -21 -4 -65 -37 -65h-126c-27 0 -36 8 -36 32c0 3 87 834 87 834c3 28 16 40 44 40h127c17 0 26 -10 26 -30c0 -21 -4 -65 -37 -65z" />
    <glyph glyph-name="backslash" unicode="\" horiz-adv-x="361" 
d="M200 8l-161 664c-1 3 -2 6 -2 9c0 17 22 21 46 21h23c31 0 52 -8 56 -30l162 -664c1 -3 1 -6 1 -8c0 -20 -25 -22 -45 -22h-24c-31 0 -52 9 -56 30z" />
    <glyph glyph-name="bracketright" unicode="]" horiz-adv-x="291" 
d="M23 -43h51l75 716h-52c-17 0 -26 10 -26 30c0 21 4 65 37 65h126c27 0 36 -8 36 -32c0 -3 -87 -834 -87 -834c-3 -28 -16 -40 -44 -40h-127c-17 0 -26 10 -26 30c0 21 4 65 37 65z" />
    <glyph glyph-name="asciicircum" unicode="^" horiz-adv-x="450" 
d="M22 348l162 308c10 20 24 30 45 30h31c19 0 33 -10 39 -30l96 -308c3 -6 3 -11 3 -15c-1 -9 -12 -15 -34 -15h-21c-26 0 -43 9 -49 30l-64 207l-108 -207c-11 -21 -28 -30 -54 -30h-21c-21 0 -30 5 -30 14c0 4 1 9 5 16z" />
    <glyph glyph-name="underscore" unicode="_" horiz-adv-x="534" 
d="M-21 -109c0 24 3 73 37 73h515c17 0 26 -11 26 -34s-4 -73 -37 -73h-515c-18 0 -26 10 -26 34z" />
    <glyph glyph-name="grave" unicode="`" 
d="M224 595c-47 0 -62 13 -72 25c-82 100 -92 108 -92 118c0 13 20 16 62 16c40 0 72 -6 82 -27c37 -79 53 -105 53 -116c0 -12 -9 -16 -33 -16z" />
    <glyph glyph-name="a" unicode="a" horiz-adv-x="545" 
d="M437 -8c-61 0 -101 22 -115 75c-29 -43 -78 -76 -136 -76c-97 0 -162 76 -162 217c0 192 91 322 222 322c57 0 100 -33 121 -53c11 36 14 46 65 47h12c40 0 58 -9 58 -25c0 -4 -37 -341 -37 -358c0 -23 9 -32 30 -32c14 0 25 6 29 6c6 0 8 -2 8 -11c0 -2 -1 -25 -7 -60
c-6 -37 -53 -52 -88 -52zM242 112c32 0 58 27 78 58c16 178 12 147 26 216c-17 15 -38 27 -66 27c-67 0 -106 -68 -106 -196c0 -69 22 -105 68 -105z" />
    <glyph glyph-name="b" unicode="b" horiz-adv-x="569" 
d="M161 44c-11 -35 -15 -45 -65 -46h-12c-40 0 -58 9 -58 25l74 699c2 21 24 32 63 32h28c40 0 57 -15 57 -31l-27 -249c29 34 71 57 121 57c109 0 182 -76 182 -217c0 -192 -99 -322 -242 -322c-57 0 -99 31 -121 52zM195 223l-12 -88c16 -14 37 -26 65 -26
c79 0 126 68 126 196c0 72 -27 105 -88 105c-32 0 -57 -26 -77 -56z" />
    <glyph glyph-name="c" unicode="c" horiz-adv-x="485" 
d="M431 135c0 -4 -3 -60 -8 -77c-18 -50 -111 -66 -163 -66c-153 0 -227 69 -227 212c0 174 69 327 280 327c48 0 157 -11 158 -69c0 -19 -34 -76 -55 -76c-5 0 -9 3 -16 7c-15 8 -38 21 -82 21c-89 0 -132 -65 -132 -195c0 -74 28 -110 93 -110c58 0 100 20 124 32
c10 5 17 8 21 8s7 0 7 -14z" />
    <glyph glyph-name="d" unicode="d" horiz-adv-x="565" 
d="M449 -8c-62 0 -101 23 -115 77c-28 -45 -77 -77 -136 -77c-103 0 -172 76 -172 217c0 192 95 322 232 322c47 0 84 -22 107 -41c15 138 25 232 25 232c2 21 24 32 63 32h28c40 0 57 -15 57 -31c0 0 -61 -571 -61 -581c0 -23 9 -33 30 -33c14 0 25 6 29 6c6 0 8 -2 8 -11
c0 -2 -1 -25 -7 -60c-6 -37 -53 -52 -88 -52zM333 172c5 51 14 131 22 218c-16 13 -37 24 -63 24c-73 0 -116 -68 -116 -196c0 -69 26 -105 78 -105c33 0 59 27 79 59z" />
    <glyph glyph-name="e" unicode="e" horiz-adv-x="539" 
d="M288 109c80 0 144 44 155 44c4 0 8 0 8 -14c-1 -4 -3 -61 -8 -77c-16 -55 -119 -70 -174 -70c-163 0 -236 85 -236 220c0 231 127 319 275 319c163 0 194 -93 194 -145c0 -133 -116 -183 -215 -183c-44 0 -76 3 -104 7c4 -82 46 -101 105 -101zM298 414
c-62 0 -94 -50 -108 -112h48c94 0 120 36 120 65c0 33 -25 47 -60 47z" />
    <glyph glyph-name="f" unicode="f" horiz-adv-x="325" 
d="M240 523h60c14 0 16 -6 16 -20c0 -37 -19 -97 -58 -97h-30l-39 -376c-2 -21 -24 -32 -63 -32h-28c-40 0 -57 15 -57 31l39 377h-20c-18 0 -26 11 -26 36c0 46 9 81 38 81h21l7 75c9 102 68 162 163 162c48 0 96 -8 96 -46c0 -17 -20 -76 -37 -76c-8 0 -13 5 -33 5
c-26 0 -37 -14 -40 -43z" />
    <glyph glyph-name="g" unicode="g" horiz-adv-x="546" 
d="M519 500l-41 -407c-21 -203 -99 -305 -255 -305c-103 0 -185 29 -185 71c0 68 10 87 20 87c12 0 57 -41 135 -41c77 0 122 46 130 128l3 30c-29 -34 -72 -59 -122 -59c-103 0 -172 73 -172 209c0 190 95 318 232 318c56 0 99 -32 120 -52c11 35 15 45 65 46h12
c40 0 58 -9 58 -25zM260 125c32 0 58 27 78 58l13 117c4 33 6 62 12 88c-17 14 -38 26 -65 26c-73 0 -116 -67 -116 -192c0 -64 26 -97 78 -97z" />
    <glyph glyph-name="h" unicode="h" horiz-adv-x="565" 
d="M22 29l73 693c2 21 24 32 63 32h28c40 0 57 -15 57 -31l-27 -260c34 36 91 68 147 68c89 0 132 -40 132 -127c0 -22 -25 -245 -25 -262c0 -23 9 -33 30 -33c14 0 25 6 29 6c6 0 8 -2 8 -11c0 -2 -1 -25 -7 -60c-6 -37 -53 -52 -88 -52c-78 0 -121 37 -121 127
c0 24 23 226 23 240c0 32 -15 50 -54 50c-38 0 -67 -30 -86 -57l-34 -322c-2 -21 -24 -32 -63 -32h-28c-40 0 -57 15 -57 31z" />
    <glyph glyph-name="i" unicode="i" horiz-adv-x="265" 
d="M239 723l-9 -82c-2 -21 -24 -32 -63 -32h-28c-40 0 -57 15 -57 31l9 82c2 21 24 32 63 32h28c40 0 57 -15 57 -31zM29 119c0 28 38 374 38 374c2 21 24 32 63 32h28c40 0 57 -15 57 -31c0 0 -37 -342 -37 -352c0 -23 9 -33 30 -33c14 0 25 6 29 6c6 0 8 -2 8 -11
c0 -2 -1 -25 -7 -60c-6 -37 -53 -52 -88 -52c-78 0 -121 37 -121 127z" />
    <glyph glyph-name="j" unicode="j" horiz-adv-x="276" 
d="M253 723l-9 -82c-2 -21 -24 -32 -63 -32h-28c-40 0 -57 15 -57 31l9 82c2 21 24 32 63 32h28c40 0 57 -15 57 -31zM229 494l-57 -544c-11 -102 -67 -162 -163 -162c-30 0 -78 1 -78 39c0 63 9 83 18 83c5 0 15 -5 35 -5c25 0 37 13 40 43l57 545c2 21 24 32 63 32h28
c40 0 57 -15 57 -31z" />
    <glyph glyph-name="k" unicode="k" horiz-adv-x="521" 
d="M25 30l73 692c2 21 21 32 63 32h28c43 0 57 -11 57 -32l-42 -396l4 -1l140 181c13 17 34 19 63 19h37c37 0 55 -6 55 -14c0 -5 -5 -13 -12 -21l-159 -198l136 -258c4 -8 5 -13 5 -18c0 -11 -13 -18 -58 -18h-42c-29 0 -51 4 -58 19l-115 230l-4 -1l-23 -216
c-2 -21 -21 -32 -63 -32h-28c-43 0 -57 11 -57 32z" />
    <glyph glyph-name="l" unicode="l" horiz-adv-x="297" 
d="M33 119c0 31 63 606 63 606c3 20 15 30 52 30h48c36 0 47 -11 47 -27c0 0 -61 -582 -61 -586c0 -23 9 -33 30 -33c14 0 25 6 29 6c6 0 8 -2 8 -11c0 -2 -1 -25 -7 -60c-6 -37 -53 -52 -88 -52c-78 0 -121 37 -121 127z" />
    <glyph glyph-name="m" unicode="m" horiz-adv-x="848" 
d="M180 520c27 0 30 -31 32 -66c33 40 95 77 155 77c69 0 111 -25 126 -77c31 38 96 77 160 77c89 0 132 -40 132 -127c0 -22 -25 -245 -25 -262c0 -23 9 -33 30 -33c14 0 25 6 29 6c6 0 8 -2 8 -11c0 -2 -1 -25 -7 -60c-6 -37 -53 -52 -88 -52c-78 0 -121 37 -121 127
c0 24 23 226 23 240c0 32 -15 50 -54 50c-37 0 -67 -29 -86 -57l-31 -322c-2 -21 -24 -32 -63 -32h-28c-40 0 -57 15 -57 31c0 0 33 320 33 330c0 32 -15 50 -54 50c-38 0 -67 -30 -86 -58l-32 -321c-2 -21 -24 -32 -63 -32h-28c-40 0 -57 15 -57 31l34 328c3 29 4 54 4 71
c0 24 -2 41 -2 56c0 22 51 36 116 36z" />
    <glyph glyph-name="n" unicode="n" horiz-adv-x="557" 
d="M470 142c0 -23 9 -33 30 -33c14 0 25 6 29 6c6 0 8 -2 8 -11c0 -2 -1 -25 -7 -60c-6 -37 -53 -52 -88 -52c-78 0 -121 37 -121 127c0 24 23 226 23 240c0 32 -15 50 -54 50s-70 -33 -88 -61c-11 -132 -32 -318 -32 -318c-2 -21 -24 -32 -63 -32h-28c-40 0 -57 15 -57 31
l34 328c3 29 4 54 4 71c0 24 -2 41 -2 56c0 22 51 36 116 36c28 0 30 -32 32 -68c32 40 95 79 157 79c89 0 132 -40 132 -127c0 -22 -25 -245 -25 -262z" />
    <glyph glyph-name="o" unicode="o" horiz-adv-x="569" 
d="M33 211c0 163 65 320 274 320c143 0 217 -77 217 -220c0 -205 -105 -319 -274 -319c-143 0 -217 77 -217 219zM262 109c69 0 111 68 111 195c0 73 -24 110 -78 110c-70 0 -112 -68 -112 -196c0 -72 25 -109 79 -109z" />
    <glyph glyph-name="p" unicode="p" horiz-adv-x="573" 
d="M185 520c25 0 30 -28 32 -60c28 40 75 71 131 71c106 0 177 -76 177 -217c0 -192 -97 -322 -237 -322c-47 0 -83 21 -107 40c-13 -127 -22 -206 -22 -206c-2 -21 -24 -32 -63 -32h-28c-40 0 -57 15 -57 31l56 532c3 29 4 54 4 71c0 24 -2 41 -2 56c0 22 51 36 116 36z
M212 349c-5 -58 -13 -136 -21 -217c16 -13 37 -23 63 -23c76 0 121 68 121 196c0 69 -28 105 -83 105c-34 0 -60 -28 -80 -61z" />
    <glyph glyph-name="q" unicode="q" horiz-adv-x="566" 
d="M389 479c11 35 15 45 65 46h12c40 0 58 -9 58 -25l-71 -674c-2 -21 -24 -32 -63 -32h-28c-40 0 -57 15 -57 31l23 224c-29 -34 -70 -57 -120 -57c-106 0 -177 76 -177 217c0 192 97 322 237 322c57 0 99 -31 121 -52zM355 300l12 88c-16 14 -37 26 -65 26
c-76 0 -121 -68 -121 -196c0 -69 28 -105 83 -105c32 0 57 26 77 56z" />
    <glyph glyph-name="r" unicode="r" horiz-adv-x="366" 
d="M211 455c25 37 60 76 117 76c44 0 47 -31 47 -46c0 -33 -26 -93 -40 -93c-10 0 -17 9 -41 9c-41 0 -72 -31 -87 -51c-11 -131 -32 -320 -32 -320c-2 -21 -24 -32 -63 -32h-28c-40 0 -57 15 -57 31l34 328c3 29 4 54 4 71c0 24 -2 41 -2 56c0 22 51 36 116 36
c27 0 29 -29 32 -65z" />
    <glyph glyph-name="s" unicode="s" horiz-adv-x="413" 
d="M251 415c-36 0 -57 -12 -57 -40c0 -65 178 -37 178 -187c0 -126 -87 -196 -206 -196c-31 0 -144 7 -144 61c0 87 16 90 22 90c9 0 51 -34 110 -34c44 0 66 17 66 50c0 77 -178 39 -178 187c0 122 85 185 198 185c55 0 146 -13 146 -61c0 -19 -33 -75 -53 -75
c-13 0 -31 20 -82 20z" />
    <glyph glyph-name="t" unicode="t" horiz-adv-x="342" 
d="M56 125c0 22 29 281 29 281h-20c-18 0 -26 11 -26 36c0 46 9 81 38 81h20l10 95c2 21 24 32 63 32h28c40 0 57 -15 57 -31l-10 -96h59c14 0 16 -6 16 -20c0 -37 -19 -97 -58 -97h-29s-28 -261 -28 -264c0 -23 9 -33 30 -33c19 0 33 6 38 6c6 0 8 -2 8 -11
c0 -2 -1 -25 -7 -60c-6 -37 -53 -52 -88 -52c-80 0 -130 40 -130 133z" />
    <glyph glyph-name="u" unicode="u" horiz-adv-x="557" 
d="M436 -8c-63 0 -103 24 -116 80c-35 -41 -96 -80 -160 -80c-90 0 -132 40 -132 127c0 35 37 374 37 374c2 21 24 32 63 32h28c40 0 57 -15 57 -31c0 0 -34 -318 -34 -331c0 -31 15 -49 54 -49c38 0 68 29 86 54c10 109 34 325 34 325c2 21 24 32 63 32h28
c40 0 57 -15 57 -31c0 0 -37 -342 -37 -352c0 -23 9 -33 30 -33c14 0 25 6 29 6c6 0 8 -2 8 -11c0 -2 -1 -25 -7 -60c-6 -37 -53 -52 -88 -52z" />
    <glyph glyph-name="v" unicode="v" horiz-adv-x="485" 
d="M137 19l-110 466c-1 6 -2 11 -2 15c0 16 17 25 63 25h33c27 0 50 -5 54 -21l40 -185c5 -24 9 -77 15 -121h4c13 44 31 98 41 121l78 185c7 16 29 21 58 21h25c22 0 57 0 57 -23c0 -5 -1 -10 -4 -17l-208 -466c-7 -16 -29 -21 -58 -21h-32c-30 0 -50 5 -54 21z" />
    <glyph glyph-name="w" unicode="w" horiz-adv-x="747" 
d="M116 19l-77 465c-1 6 -1 11 -1 15c2 16 22 26 65 26h24c27 0 51 -7 53 -21l47 -308l108 308c5 14 24 21 57 21h24c28 0 51 -7 53 -21l42 -308l113 308c5 14 25 21 57 21h4c41 0 59 -9 59 -24c0 -4 -1 -10 -3 -17l-167 -465c-5 -14 -29 -21 -57 -21h-49
c-32 0 -50 7 -53 21l-42 281l-98 -281c-5 -14 -28 -21 -57 -21h-49c-33 0 -51 7 -53 21z" />
    <glyph glyph-name="x" unicode="x" horiz-adv-x="485" 
d="M-16 41l175 224l-119 216c-6 10 -8 18 -8 24c0 18 33 20 64 20h32c29 0 50 -1 59 -19l63 -123l92 123c13 18 34 19 63 19h29c24 0 60 0 60 -19c0 -6 -4 -14 -12 -24l-169 -216l124 -224c5 -9 7 -17 7 -22c0 -21 -29 -22 -63 -22h-32c-29 0 -50 1 -59 19l-68 131l-97 -131
c-13 -18 -34 -19 -63 -19h-30c-22 0 -60 0 -60 20c0 6 4 13 12 23z" />
    <glyph glyph-name="y" unicode="y" horiz-adv-x="481" 
d="M144 0c-116 490 -117 495 -117 499c0 16 16 26 64 26h32c27 0 50 -5 54 -21l39 -185c5 -23 11 -78 16 -121h4c13 43 31 99 40 121l79 185c7 16 28 21 58 21h24c41 0 58 -8 58 -21c0 -5 -3 -12 -5 -19l-300 -670c-7 -16 -29 -21 -58 -21h-17c-40 0 -58 7 -58 20
c0 5 2 12 6 19z" />
    <glyph glyph-name="z" unicode="z" horiz-adv-x="489" 
d="M468 431l-261 -314h207c18 0 26 -11 26 -36c0 -46 -9 -81 -38 -81h-371c-13 0 -24 46 -24 73c0 9 1 16 4 19l261 314h-188c-18 0 -26 11 -26 36c0 46 9 81 38 81h352c13 0 24 -46 24 -73c0 -9 -1 -16 -4 -19z" />
    <glyph glyph-name="braceleft" unicode="{" horiz-adv-x="274" 
d="M194 -44c17 0 26 -9 26 -29c0 -37 -9 -65 -36 -65h-39c-53 0 -88 40 -88 99c0 41 21 155 21 221c0 92 -62 72 -62 121c0 38 8 53 36 68c36 18 52 46 59 113l18 168c7 68 48 116 111 116h39c18 0 27 -9 27 -29c0 -37 -9 -65 -37 -65c-17 0 -25 -10 -27 -36l-17 -170
c-8 -74 -42 -128 -84 -153c35 -21 53 -63 53 -120c0 -43 -20 -177 -20 -213c0 -19 8 -26 20 -26z" />
    <glyph glyph-name="bar" unicode="|" horiz-adv-x="250" 
d="M68 -108v846c0 21 15 30 50 30h15c35 0 50 -9 50 -30v-846c0 -21 -15 -30 -50 -30h-15c-35 0 -50 9 -50 30z" />
    <glyph glyph-name="braceright" unicode="}" horiz-adv-x="274" 
d="M85 674c-17 0 -26 9 -26 29c0 37 9 65 36 65h39c53 0 88 -40 88 -99c0 -41 -21 -155 -21 -221c0 -92 62 -72 62 -121c0 -38 -8 -54 -36 -68c-36 -19 -52 -48 -59 -113l-18 -168c-7 -68 -48 -116 -111 -116h-39c-18 0 -27 9 -27 29c0 37 9 65 37 65c15 0 24 10 27 36
l17 170c7 74 40 128 84 153c-35 21 -53 63 -53 120c0 43 20 177 20 213c0 19 -8 26 -20 26z" />
    <glyph glyph-name="asciitilde" unicode="~" horiz-adv-x="547" 
d="M105 214c-21 0 -41 30 -41 51c0 37 92 81 142 81c75 0 119 -42 171 -42c27 0 47 15 65 15c24 0 42 -36 42 -58c0 -40 -100 -78 -143 -78c-76 0 -119 42 -171 42c-36 0 -48 -11 -65 -11z" />
    <glyph glyph-name="nbspace" unicode="&#xa0;" horiz-adv-x="480" 
 />
    <glyph glyph-name="exclamdown" unicode="&#xa1;" horiz-adv-x="294" 
d="M263 493l-10 -92c-2 -21 -21 -32 -63 -32h-32c-43 0 -57 11 -57 32l10 92c2 21 21 32 63 32h32c43 0 57 -11 57 -32zM107 269c5 21 13 32 54 32h11c43 0 48 -10 48 -32l-44 -416c-2 -21 -21 -32 -63 -32h-43c-40 0 -58 11 -58 29c0 2 3 32 95 419z" />
    <glyph glyph-name="cent" unicode="&#xa2;" horiz-adv-x="486" 
d="M353 571l-5 -42c52 -5 120 -21 120 -67c0 -19 -34 -76 -55 -76c-13 0 -29 22 -77 27l-32 -303c65 7 103 39 116 39c4 0 8 0 8 -14c0 -4 -3 -61 -8 -77c-13 -43 -77 -59 -128 -64l-5 -49c-2 -14 -9 -20 -22 -20h-17c-15 0 -18 6 -18 20l5 48c-133 7 -197 76 -197 211
c0 168 63 316 253 326l5 41c2 14 7 20 22 20h17c14 0 18 -6 18 -20zM189 219c0 -60 18 -95 58 -106l32 295c-60 -18 -90 -81 -90 -189z" />
    <glyph glyph-name="sterling" unicode="&#xa3;" horiz-adv-x="491" 
d="M338 311h-90l-6 -60c-6 -63 -25 -106 -55 -134h223c17 0 25 -10 25 -33c0 -5 0 -11 -1 -17l-1 -17c-2 -35 -17 -50 -36 -50h-363c-29 0 -35 12 -35 40l2 19c4 41 81 48 88 116l14 136h-35c-18 0 -26 11 -26 36c0 46 9 81 38 81h35l8 74c15 138 99 206 252 206
c22 0 105 0 105 -41c0 -37 -32 -79 -48 -79c-5 0 -29 8 -63 8c-61 0 -93 -26 -100 -89l-9 -79h120c14 0 16 -6 16 -20c0 -37 -19 -97 -58 -97z" />
    <glyph glyph-name="currency" unicode="&#xa4;" horiz-adv-x="534" 
d="M62 84l-27 30c-6 7 -10 15 -10 22c0 10 5 19 15 28l24 22c-11 24 -17 51 -17 80c0 46 14 92 41 129l-24 27c-6 7 -9 15 -9 22c0 10 4 19 14 28l33 30c9 8 19 12 27 12c9 0 16 -4 23 -12l26 -28c31 16 66 26 103 26s71 -10 100 -27l32 29c9 8 19 12 27 12
c9 0 16 -4 23 -12l27 -30c6 -7 10 -14 10 -22c0 -9 -5 -19 -15 -28l-32 -29c12 -25 18 -52 18 -81c0 -46 -14 -88 -38 -124l22 -24c6 -7 9 -14 9 -22c0 -9 -4 -19 -14 -28l-33 -30c-9 -8 -18 -12 -27 -12c-8 0 -16 4 -23 12l-21 23c-33 -19 -71 -29 -109 -29s-73 10 -102 27
l-23 -21c-9 -8 -18 -12 -27 -12c-8 0 -16 4 -23 12zM249 192c57 0 107 49 107 108c0 49 -37 86 -87 86c-58 0 -108 -49 -108 -108c0 -49 38 -86 88 -86z" />
    <glyph glyph-name="yen" unicode="&#xa5;" horiz-adv-x="559" 
d="M41 357c0 17 3 51 37 51h88l-128 249c-4 8 -6 15 -6 21c0 23 32 24 64 24h43c29 0 51 -4 58 -19l100 -214l145 214c10 15 33 19 62 19h36c23 0 61 -2 61 -20c0 -6 -4 -15 -11 -25l-179 -249h83c17 0 26 -8 26 -24s-4 -51 -37 -51h-126l-7 -63h129c17 0 26 -8 26 -24
s-4 -51 -37 -51h-126l-17 -165c-2 -21 -21 -32 -63 -32h-34c-43 0 -57 11 -57 32l17 165h-136c-18 0 -26 7 -26 24s3 51 37 51h133l6 63h-135c-18 0 -26 7 -26 24z" />
    <glyph glyph-name="brokenbar" unicode="&#xa6;" horiz-adv-x="250" 
d="M78 412l34 326c2 21 18 32 53 32h15c37 0 47 -12 47 -32l-34 -326c-2 -21 -20 -32 -54 -32h-15c-32 0 -47 9 -47 27c0 1 1 3 1 5zM23 -108l34 326c2 21 19 32 54 32h15c36 0 46 -11 46 -32l-34 -326c-2 -21 -18 -32 -53 -32h-15c-37 0 -47 11 -47 32z" />
    <glyph glyph-name="section" unicode="&#xa7;" horiz-adv-x="429" 
d="M170 -7c-29 0 -130 4 -130 54c0 87 16 90 22 90c8 0 46 -28 100 -28c37 0 57 11 57 34c0 60 -179 37 -179 186c0 51 19 97 50 130c-18 17 -29 40 -29 75c0 108 81 174 201 174c55 0 142 -13 142 -61c0 -19 -33 -75 -53 -75c-13 0 -30 20 -81 20c-38 0 -57 -11 -57 -34
c0 -60 179 -37 179 -186c0 -47 -16 -93 -50 -130c17 -18 29 -42 29 -76c0 -107 -82 -173 -201 -173zM245 292c7 12 14 29 14 49c0 39 -33 54 -72 68c-10 -15 -14 -36 -14 -50c0 -38 32 -53 72 -67z" />
    <glyph glyph-name="dieresis" unicode="&#xa8;" 
d="M187 610l7 60c2 21 21 32 63 32c43 0 57 -11 57 -32l-7 -60c-3 -21 -23 -32 -63 -32c-43 0 -57 11 -57 32zM7 610l7 60c2 21 21 32 63 32c43 0 57 -11 57 -32l-7 -60c-3 -21 -23 -32 -63 -32c-43 0 -57 11 -57 32z" />
    <glyph glyph-name="copyright" unicode="&#xa9;" horiz-adv-x="739" 
d="M10 350c0 198 160 358 358 358s358 -160 358 -358s-160 -358 -358 -358s-358 160 -358 358zM74 350c0 -162 132 -294 294 -294s294 132 294 294s-132 294 -294 294s-294 -132 -294 -294zM197 353c0 133 62 199 186 199c50 0 117 -16 117 -39c0 -16 -22 -53 -36 -53
c-7 0 -29 18 -82 18c-66 0 -97 -42 -97 -125c0 -84 31 -128 96 -128c53 0 83 23 91 23c18 0 33 -40 33 -49c0 -34 -80 -47 -124 -47c-125 0 -184 63 -184 201z" />
    <glyph glyph-name="ordfeminine" unicode="&#xaa;" horiz-adv-x="319" 
d="M228 441c-30 0 -50 11 -56 37c-15 -22 -39 -38 -68 -38c-48 0 -80 38 -80 108c0 95 45 159 110 159c28 0 49 -16 60 -26c5 18 7 23 32 23h6c20 0 29 -4 29 -12c0 -2 -19 -169 -19 -178c0 -11 5 -15 15 -15c7 0 13 3 15 3c3 0 3 -1 3 -6c0 -2 6 -55 -47 -55zM132 500
c16 0 29 13 39 29c7 84 6 71 12 107c-8 7 -18 13 -32 13c-33 0 -53 -34 -53 -97c0 -34 11 -52 34 -52z" />
    <glyph glyph-name="guillemotleft" unicode="&#xab;" horiz-adv-x="471" 
d="M348 61l-111 153c-8 11 -12 20 -12 33c0 24 5 38 21 55l143 153c10 10 19 14 29 14c18 0 54 -25 54 -47c0 -8 -5 -16 -12 -24l-124 -140l95 -140c4 -7 6 -13 6 -19c0 -20 -38 -53 -64 -53c-9 0 -18 5 -25 15zM149 61l-111 153c-9 11 -12 21 -12 33c0 24 5 38 21 55
l143 153c10 10 19 14 29 14c18 0 54 -25 54 -47c0 -8 -5 -16 -12 -24l-124 -140l95 -140c4 -7 6 -13 6 -19c0 -20 -38 -53 -64 -53c-9 0 -18 5 -25 15z" />
    <glyph glyph-name="logicalnot" unicode="&#xac;" horiz-adv-x="560" 
d="M37 276c0 24 3 73 37 73h430c29 0 36 -13 36 -40l-22 -205c-2 -21 -15 -32 -43 -32h-20c-30 0 -37 11 -37 32l15 138h-370c-18 0 -26 10 -26 34z" />
    <glyph glyph-name="uni00AD" unicode="&#xad;" 
d="M26 246c0 24 3 73 37 73h204c17 0 26 -11 26 -34s-4 -73 -37 -73h-204c-18 0 -26 10 -26 34z" />
    <glyph glyph-name="registered" unicode="&#xae;" horiz-adv-x="739" 
d="M10 350c0 198 160 358 358 358s358 -160 358 -358s-160 -358 -358 -358s-358 160 -358 358zM74 350c0 -162 132 -294 294 -294s294 132 294 294s-132 294 -294 294s-294 -132 -294 -294zM241 174v352c0 15 7 22 22 22h109c97 0 139 -38 139 -105c0 -43 -28 -74 -66 -89
v-4c14 -6 31 -25 41 -49l49 -123c2 -5 3 -8 3 -11c0 -7 -11 -11 -33 -11h-23c-17 0 -29 3 -33 12l-44 109c-11 22 -20 33 -56 33h-22v-136c0 -12 -10 -18 -34 -18h-18c-24 0 -34 6 -34 18zM327 384h53c23 0 43 22 43 48s-18 43 -47 43h-49v-91z" />
    <glyph glyph-name="macron" unicode="&#xaf;" 
d="M18 627c0 21 3 65 37 65h216c17 0 26 -10 26 -30c0 -21 -4 -65 -37 -65h-216c-18 0 -26 9 -26 30z" />
    <glyph glyph-name="degree" unicode="&#xb0;" horiz-adv-x="345" 
d="M36 562c0 73 56 146 147 146c68 0 120 -52 120 -119c0 -79 -59 -146 -147 -146c-69 0 -120 52 -120 119zM177 646c-48 0 -76 -38 -76 -79c0 -35 26 -62 61 -62c47 0 75 36 75 79c0 35 -26 62 -60 62z" />
    <glyph glyph-name="plusminus" unicode="&#xb1;" horiz-adv-x="560" 
d="M46 347c0 24 3 73 37 73h151l16 154c2 21 18 30 53 30h14c37 0 47 -9 47 -30l-16 -154h153c18 0 26 -11 26 -36s-1 -71 -37 -71h-153l-16 -152c-2 -21 -18 -30 -53 -30h-14c-37 0 -47 9 -47 30l16 152h-151c-18 0 -26 10 -26 34zM14 34c0 24 3 73 37 73h417
c17 0 26 -11 26 -34s-4 -73 -37 -73h-417c-18 0 -26 10 -26 34z" />
    <glyph glyph-name="twosuperior" unicode="&#xb2;" 
d="M121 362h139c11 0 16 -6 16 -21c0 -27 -6 -47 -23 -47h-227c-8 0 -16 32 -16 50c0 4 1 8 2 10l167 182c15 16 28 40 28 61c0 28 -20 42 -50 42c-41 0 -60 -25 -70 -25c-17 0 -30 22 -30 37c0 40 72 57 118 57c75 0 120 -46 120 -100c0 -62 -35 -99 -174 -246z" />
    <glyph glyph-name="threesuperior" unicode="&#xb3;" 
d="M126 290c-30 0 -102 3 -102 36c0 43 8 55 14 55c8 0 32 -23 82 -23c38 0 64 25 64 67c0 32 -18 50 -63 50h-17c-10 0 -15 6 -15 21c0 27 5 47 23 47h11c42 0 66 23 66 57c0 24 -14 39 -42 39c-45 0 -61 -18 -72 -18s-24 27 -24 43c0 30 59 44 118 44
c68 0 110 -34 110 -90c0 -46 -27 -82 -65 -97v-5c40 -15 58 -46 58 -87c0 -87 -64 -139 -146 -139z" />
    <glyph glyph-name="acute" unicode="&#xb4;" 
d="M76 595c-22 0 -29 3 -29 13c0 11 19 31 77 119c14 21 48 27 88 27c38 0 58 -3 58 -13c0 -13 -4 -11 -116 -121c-12 -12 -31 -25 -78 -25z" />
    <glyph glyph-name="mu" unicode="&#xb5;" horiz-adv-x="566" 
d="M17 -175l71 668c2 21 24 32 63 32h28c40 0 57 -15 57 -31c0 0 -34 -318 -34 -331c0 -31 15 -49 54 -49c38 0 68 29 86 54c10 109 34 325 34 325c2 21 24 32 63 32h28c40 0 57 -15 57 -31c0 0 -37 -342 -37 -352c0 -23 9 -33 30 -33c14 0 25 6 29 6c6 0 8 -2 8 -11
c0 -2 -1 -25 -7 -60c-6 -37 -53 -52 -88 -52c-63 0 -103 24 -116 80c-35 -41 -96 -80 -160 -80l-18 -166c-2 -21 -24 -32 -63 -32h-28c-40 0 -57 15 -57 31z" />
    <glyph glyph-name="paragraph" unicode="&#xb6;" horiz-adv-x="515" 
d="M199 -151l42 398c-105 12 -180 96 -180 203c0 159 120 250 252 250h213c15 0 19 -6 18 -20l-2 -22c-1 -14 -8 -20 -22 -20h-36l-83 -789c-2 -14 -11 -22 -22 -22h-22c-15 0 -18 8 -18 22l83 789h-78l-83 -789c-2 -14 -11 -22 -22 -22h-22c-15 0 -18 8 -18 22z" />
    <glyph glyph-name="periodcentered" unicode="&#xb7;" horiz-adv-x="267" 
d="M70 350c0 38 27 79 78 79c36 0 63 -27 63 -63c0 -42 -32 -77 -78 -77c-36 0 -63 26 -63 61z" />
    <glyph glyph-name="cedilla" unicode="&#xb8;" 
d="M148 -212c-29 0 -103 5 -103 52c0 40 8 48 14 48c12 0 43 -27 89 -27c18 0 24 6 25 17c-1 24 -48 24 -48 48c0 3 -1 6 34 84h66l-18 -46c45 -11 70 -34 70 -74c0 -67 -49 -102 -129 -102z" />
    <glyph glyph-name="onesuperior" unicode="&#xb9;" horiz-adv-x="217" 
d="M206 690l-40 -378c-1 -12 -13 -19 -37 -19h-16c-25 0 -33 7 -33 19l33 312l-80 -13c-12 0 -15 20 -15 36c0 17 2 28 18 31l148 26c9 0 22 -7 22 -14z" />
    <glyph glyph-name="ordmasculine" unicode="&#xba;" horiz-adv-x="337" 
d="M45 548c0 80 37 160 137 160c71 0 107 -38 107 -108c0 -103 -52 -159 -136 -159c-71 0 -108 37 -108 107zM160 499c33 0 54 33 54 97c0 35 -12 54 -39 54c-35 0 -55 -34 -55 -98c0 -35 13 -53 40 -53z" />
    <glyph glyph-name="guillemotright" unicode="&#xbb;" horiz-adv-x="471" 
d="M349 454l111 -153c9 -11 12 -21 12 -33c0 -24 -5 -38 -21 -55l-143 -153c-10 -10 -19 -14 -29 -14c-18 0 -54 25 -54 47c0 8 5 16 12 24l124 140l-95 140c-4 7 -6 13 -6 19c0 20 38 53 64 53c9 0 18 -5 25 -15zM150 454l111 -153c8 -11 12 -20 12 -33
c0 -24 -5 -38 -21 -55l-143 -153c-10 -10 -19 -14 -29 -14c-18 0 -54 25 -54 47c0 8 5 16 12 24l124 140l-95 140c-4 7 -6 13 -6 19c0 20 38 53 64 53c9 0 18 -5 25 -15z" />
    <glyph glyph-name="onequarter" unicode="&#xbc;" horiz-adv-x="671" 
d="M234 690l-40 -378c-1 -12 -13 -19 -37 -19h-16c-25 0 -33 7 -33 19l33 312l-80 -13c-12 0 -15 20 -15 36c0 17 2 28 18 31l148 26c9 0 22 -7 22 -14zM83 26l427 648c12 18 28 26 48 26h17c13 0 20 -4 20 -10c0 -4 -3 -10 -8 -16l-427 -648c-13 -19 -27 -26 -47 -26h-17
c-13 0 -20 2 -20 9c0 5 2 10 7 17zM604 82h-23l-7 -65c-1 -12 -12 -19 -37 -19h-16c-25 0 -33 7 -33 19l7 65h-154c-9 0 -15 34 -15 51c0 4 0 9 1 10l200 256c8 10 20 11 37 11h16c25 0 33 -7 33 -19l-25 -240h23c11 0 15 -7 15 -21c0 -27 -5 -48 -22 -48zM414 151h88l9 85
l12 55h-4z" />
    <glyph glyph-name="onehalf" unicode="&#xbd;" horiz-adv-x="746" 
d="M234 690l-40 -378c-1 -12 -13 -19 -37 -19h-16c-25 0 -33 7 -33 19l33 312l-80 -13c-12 0 -15 20 -15 36c0 17 2 28 18 31l148 26c9 0 22 -7 22 -14zM83 26l427 648c12 18 28 26 48 26h17c13 0 20 -4 20 -10c0 -4 -3 -10 -8 -16l-427 -648c-13 -19 -27 -26 -47 -26h-17
c-13 0 -20 2 -20 9c0 5 2 10 7 17zM515 68h139c11 0 16 -6 16 -21c0 -27 -6 -47 -23 -47h-227c-8 0 -16 32 -16 50c0 4 1 8 2 10l167 182c15 16 28 40 28 61c0 28 -20 42 -50 42c-41 0 -60 -25 -70 -25c-17 0 -30 22 -30 37c0 40 72 57 118 57c75 0 120 -46 120 -100
c0 -62 -35 -99 -174 -246z" />
    <glyph glyph-name="threequarters" unicode="&#xbe;" horiz-adv-x="738" 
d="M147 290c-30 0 -102 3 -102 36c0 43 8 55 14 55c8 0 32 -23 82 -23c38 0 64 25 64 67c0 32 -18 50 -63 50h-17c-10 0 -15 6 -15 21c0 27 5 47 23 47h11c42 0 66 23 66 57c0 24 -14 39 -42 39c-45 0 -61 -18 -72 -18s-24 27 -24 43c0 30 59 44 118 44
c68 0 110 -34 110 -90c0 -46 -27 -82 -65 -97v-5c40 -15 58 -46 58 -87c0 -87 -64 -139 -146 -139zM123 26l427 648c12 18 28 26 48 26h17c13 0 20 -4 20 -10c0 -4 -3 -10 -8 -16l-427 -648c-13 -19 -27 -26 -47 -26h-17c-13 0 -20 2 -20 9c0 5 2 10 7 17zM644 82h-23
l-7 -65c-1 -12 -12 -19 -37 -19h-16c-25 0 -33 7 -33 19l7 65h-154c-9 0 -15 34 -15 51c0 4 0 9 1 10l200 256c8 10 20 11 37 11h16c25 0 33 -7 33 -19l-25 -240h23c11 0 15 -7 15 -21c0 -27 -5 -48 -22 -48zM454 151h88l9 85l12 55h-4z" />
    <glyph glyph-name="questiondown" unicode="&#xbf;" horiz-adv-x="425" 
d="M379 493l-9 -92c-2 -21 -22 -32 -64 -32h-32c-43 0 -56 11 -56 32l9 92c2 21 23 32 64 32h32c45 0 56 -10 56 -32zM197 -185c-125 0 -198 59 -198 156c0 166 187 203 216 303c9 21 23 27 56 27h23c37 0 46 -8 46 -29c0 -131 -184 -200 -184 -277c0 -30 22 -48 69 -48
c60 0 107 33 119 33c8 0 12 -4 12 -14c0 -14 -2 -64 -11 -96c-14 -49 -107 -55 -148 -55z" />
    <glyph glyph-name="AE" unicode="&#xc6;" horiz-adv-x="915" 
d="M-27 38l387 635c12 19 25 27 46 27h466c18 0 26 -12 26 -40c0 -52 -9 -91 -38 -91h-320l12 -145h264c18 0 26 -12 26 -40c0 -52 -9 -91 -38 -91h-239l14 -162h234c18 0 26 -12 26 -40c0 -52 -9 -91 -38 -91h-334c-22 0 -30 9 -32 30l-9 111h-243l-73 -122
c-9 -14 -24 -21 -48 -21h-37c-24 0 -60 2 -60 22c0 5 3 11 8 18zM370 455l-108 -182h154l-14 181l8 83h-4z" />
    <glyph glyph-name="Eth" unicode="&#xd0;" horiz-adv-x="696" 
d="M38 33l26 257h-29c-18 0 -26 12 -26 40c0 52 9 91 38 91h31l25 239c3 28 16 40 44 40h224c187 0 287 -102 287 -289c0 -265 -141 -411 -360 -411h-224c-27 0 -36 9 -36 33zM202 131h109c115 0 188 94 188 266c0 112 -47 172 -141 172h-109l-16 -148h59
c18 0 26 -12 26 -40c0 -52 -9 -91 -38 -91h-61z" />
    <glyph glyph-name="multiply" unicode="&#xd7;" horiz-adv-x="560" 
d="M510 390l-163 -148l132 -147c4 -5 7 -11 7 -16c0 -11 -9 -24 -27 -40l-5 -5c-17 -15 -31 -23 -41 -23c-7 0 -13 3 -17 9l-132 147l-163 -147c-7 -6 -13 -9 -19 -9c-11 0 -22 8 -35 23l-5 5c-12 14 -19 25 -19 36c0 6 3 13 11 20l162 147l-131 148c-4 4 -7 9 -7 15
c0 11 8 24 27 41l5 5c17 15 30 23 41 23c6 0 12 -3 17 -9l131 -147l164 147c6 6 12 9 19 9c10 0 22 -8 35 -23l5 -5c12 -14 19 -26 19 -36c0 -8 -4 -15 -11 -20z" />
    <glyph glyph-name="Oslash" unicode="&#xd8;" horiz-adv-x="731" 
d="M29 54l51 58c-26 45 -39 103 -39 172c0 212 99 424 362 424c68 0 125 -14 169 -42l40 46c7 8 14 12 22 12c6 0 13 -3 20 -10l16 -14c8 -7 12 -15 12 -22c0 -6 -3 -13 -10 -20l-40 -45c38 -49 57 -116 57 -199c0 -271 -127 -422 -361 -422c-82 0 -148 20 -195 58l-44 -50
c-7 -8 -15 -12 -22 -12c-6 0 -13 3 -20 10l-16 14c-8 7 -12 14 -12 22c0 6 3 13 10 20zM200 298c0 -17 1 -33 3 -48l268 303c-21 15 -49 23 -82 23c-116 0 -189 -98 -189 -278zM342 123c114 0 189 98 189 277c0 33 -4 61 -12 85l-283 -318c24 -29 59 -44 106 -44z" />
    <glyph glyph-name="Thorn" unicode="&#xde;" horiz-adv-x="567" 
d="M34 30l67 640c2 21 21 32 63 32h34c43 0 57 -11 57 -32l-8 -77h103c83 0 217 -23 217 -185c0 -224 -197 -253 -253 -253h-113l-13 -125c-2 -21 -21 -32 -63 -32h-34c-43 0 -57 11 -57 32zM215 287h96c39 0 97 17 97 102c0 59 -44 73 -79 73h-96z" />
    <glyph glyph-name="germandbls" unicode="&#xdf;" horiz-adv-x="554" 
d="M261 0h-23c-18 0 -26 11 -26 36c0 46 9 81 38 81h15c61 0 103 44 103 108c0 52 -31 86 -98 86c-18 0 -26 11 -26 36c0 46 9 81 38 81c50 0 92 39 92 90c0 29 -16 65 -65 65s-83 -34 -88 -81l-50 -472c-2 -21 -21 -32 -63 -32h-28c-43 0 -57 11 -57 32l49 460
c14 133 119 218 252 218c118 0 203 -59 203 -158c0 -75 -40 -136 -109 -163v-4c70 -28 100 -75 100 -144c0 -134 -99 -239 -257 -239z" />
    <glyph glyph-name="ae" unicode="&#xe6;" horiz-adv-x="829" 
d="M573 109c80 0 144 44 155 44c4 0 8 0 8 -14c-1 -4 -3 -61 -8 -77c-16 -55 -119 -70 -174 -70c-87 0 -148 24 -186 66c-32 -26 -104 -66 -189 -66c-102 0 -154 51 -154 130c0 87 39 192 303 194c6 27 14 52 24 73c-18 22 -46 25 -87 25c-61 0 -120 -32 -132 -32
c-20 0 -43 53 -43 76c0 35 97 73 198 73c69 0 124 -13 158 -37c43 26 94 37 147 37c163 0 194 -93 194 -145c0 -133 -116 -183 -215 -183c-44 0 -76 3 -104 7c4 -82 46 -101 105 -101zM583 414c-62 0 -94 -50 -108 -112h48c94 0 120 36 120 65c0 33 -25 47 -60 47zM220 109
c33 0 79 15 103 43c-3 19 -5 39 -5 60v12c-95 -1 -144 -26 -144 -77c0 -22 16 -38 46 -38z" />
    <glyph glyph-name="eth" unicode="&#xf0;" horiz-adv-x="569" 
d="M277 581c-19 0 -34 19 -34 38c0 10 5 17 23 20l43 6c-7 12 -27 35 -27 50c0 7 4 12 15 13l62 7c36 0 53 -23 70 -49l3 -5c67 9 68 9 69 9c16 0 32 -20 32 -39c0 -11 -6 -17 -22 -19l-47 -6c36 -66 67 -171 67 -284c0 -212 -98 -330 -273 -330c-144 0 -218 78 -218 221
c0 205 104 318 274 318c18 0 35 -2 51 -4c-8 23 -17 43 -26 62c-56 -8 -59 -8 -62 -8zM270 109c69 0 110 68 110 195c0 73 -24 110 -78 110c-70 0 -112 -67 -112 -195c0 -72 26 -110 80 -110z" />
    <glyph glyph-name="divide" unicode="&#xf7;" horiz-adv-x="560" 
d="M227 350l7 71c2 21 21 32 63 32h11c43 0 57 -11 57 -32l-7 -71c-2 -21 -23 -32 -64 -32h-11c-45 0 -56 10 -56 32zM29 206c0 24 3 73 37 73h441c17 0 26 -11 26 -34s-4 -73 -37 -73h-441c-18 0 -26 10 -26 34zM193 30l7 71c2 21 22 32 64 32h11c43 0 56 -12 56 -32
l-7 -71c-2 -21 -21 -32 -63 -32h-11c-43 0 -57 11 -57 32z" />
    <glyph glyph-name="oslash" unicode="&#xf8;" horiz-adv-x="569" 
d="M519 480l-25 -29c24 -36 36 -83 36 -140c0 -205 -105 -319 -274 -319c-53 0 -97 10 -130 31l-18 -21c-8 -9 -15 -13 -22 -13s-14 3 -21 10l-14 12c-9 7 -13 15 -13 22s3 13 10 21l22 25c-21 35 -31 78 -31 132c0 163 65 320 274 320c49 0 90 -10 122 -27l24 28
c7 8 15 13 22 13s13 -4 21 -10l14 -12c8 -8 13 -15 13 -22s-4 -14 -10 -21zM301 414c-70 0 -112 -68 -112 -196l157 183c-11 8 -27 13 -45 13zM268 109c69 0 111 68 111 195v13l-163 -190c12 -12 30 -18 52 -18z" />
    <glyph glyph-name="thorn" unicode="&#xfe;" horiz-adv-x="570" 
d="M39 -175l95 897c2 21 24 32 63 32h28c40 0 57 -15 57 -31l-26 -248c29 33 71 56 120 56c97 0 162 -76 162 -217c0 -192 -91 -322 -222 -322c-47 0 -84 21 -107 40l-22 -206c-2 -21 -24 -32 -63 -32h-28c-40 0 -57 15 -57 31zM320 410c-32 0 -57 -25 -77 -56l-24 -222
c16 -13 37 -23 63 -23c67 0 106 68 106 196c0 69 -22 105 -68 105z" />
    <glyph glyph-name="dotlessi" unicode="&#x131;" horiz-adv-x="265" 
d="M29 119c0 28 38 374 38 374c2 21 24 32 63 32h28c40 0 57 -15 57 -31c0 0 -37 -342 -37 -352c0 -23 9 -33 30 -33c14 0 25 6 29 6c6 0 8 -2 8 -11c0 -2 -1 -25 -7 -60c-6 -37 -53 -52 -88 -52c-78 0 -121 37 -121 127z" />
    <glyph glyph-name="Lslash" unicode="&#x141;" horiz-adv-x="486" 
d="M37 32l28 268l-20 -11c-7 -4 -12 -6 -16 -6c-7 0 -9 8 -9 20c0 41 15 55 33 66l20 12l31 289c2 21 24 32 63 32h35c17 0 57 -2 57 -31l-21 -196l92 53c7 4 12 6 16 6c7 0 9 -8 9 -20c0 -41 -15 -56 -33 -66l-92 -53l-28 -264h223c18 0 26 -12 26 -40
c0 -52 -9 -91 -38 -91h-340c-27 0 -36 8 -36 32z" />
    <glyph glyph-name="lslash" unicode="&#x142;" horiz-adv-x="293" 
d="M43 119c0 11 9 101 20 208l-19 -10c-7 -4 -12 -6 -16 -6c-7 0 -9 8 -9 20c0 41 15 55 33 66l19 12c17 156 35 316 35 316c3 20 15 30 52 30h48c36 0 47 -11 47 -27c0 0 -12 -108 -25 -231l27 15c7 4 12 6 16 6c7 0 9 -8 9 -20c0 -42 -15 -56 -33 -66l-27 -16
c-15 -139 -28 -272 -28 -274c0 -23 9 -33 30 -33c14 0 25 6 29 6c6 0 8 -2 8 -11c0 -2 -1 -25 -7 -60c-6 -37 -53 -52 -88 -52c-78 0 -121 37 -121 127z" />
    <glyph glyph-name="OE" unicode="&#x152;" horiz-adv-x="1021" 
d="M605 700h366c18 0 26 -12 26 -40c0 -52 -9 -91 -38 -91h-252l-16 -145h224c18 0 26 -12 26 -40c0 -52 -9 -91 -38 -91h-225l-18 -162h252c18 0 26 -12 26 -40c0 -52 -9 -91 -38 -91h-368c-27 0 -36 8 -36 32v4c-53 -30 -111 -44 -178 -44c-180 0 -277 102 -277 290
c0 274 137 426 352 426c67 0 123 -15 168 -46c3 26 17 38 44 38zM342 123c114 0 189 98 189 277c0 115 -48 176 -142 176c-116 0 -189 -98 -189 -278c0 -114 48 -175 142 -175z" />
    <glyph glyph-name="oe" unicode="&#x153;" horiz-adv-x="871" 
d="M39 211c0 163 65 320 274 320c71 0 125 -22 161 -59c48 39 109 59 175 59c163 0 194 -93 194 -145c0 -133 -116 -183 -215 -183c-44 0 -76 3 -104 7c4 -82 46 -101 105 -101c80 0 144 44 155 44c4 0 8 0 8 -14c-1 -4 -3 -61 -8 -77c-16 -55 -119 -70 -174 -70
c-81 0 -139 24 -178 61c-46 -38 -105 -61 -176 -61c-143 0 -217 77 -217 219zM639 414c-62 0 -94 -50 -108 -112h48c94 0 120 36 120 65c0 33 -25 47 -60 47zM268 109c69 0 111 68 111 195c0 73 -24 110 -78 110c-70 0 -112 -68 -112 -196c0 -72 25 -109 79 -109z" />
    <glyph glyph-name="florin" unicode="&#x192;" horiz-adv-x="332" 
d="M231 523h60c14 0 16 -6 16 -20c0 -37 -25 -97 -62 -97h-30l-80 -580c-3 -21 -24 -32 -63 -32h-28c-40 0 -57 15 -57 31l80 581h-20c-16 0 -24 9 -24 29c0 49 9 88 40 88h21l9 75c12 102 75 162 169 162c47 0 94 -8 94 -44c0 -13 -20 -78 -39 -78c-8 0 -13 5 -33 5
c-25 0 -38 -14 -42 -43z" />
    <glyph glyph-name="circumflex" unicode="&#x2c6;" 
d="M19 607l76 102c13 18 34 19 63 19h11c29 0 49 -1 59 -19l54 -102c2 -5 3 -8 3 -12c0 -8 -6 -13 -19 -13h-22c-30 0 -52 5 -64 24l-25 40l-31 -39c-17 -22 -41 -25 -69 -25h-24c-12 0 -19 4 -19 10c0 4 2 9 7 15z" />
    <glyph glyph-name="caron" unicode="&#x2c7;" 
d="M293 703l-76 -102c-13 -18 -34 -19 -63 -19h-11c-29 0 -49 1 -59 19l-54 102c-2 5 -3 8 -3 12c0 8 6 13 19 13h22c29 0 52 -6 64 -24l25 -40l31 39c17 22 41 24 69 25h24c12 0 19 -4 19 -10c0 -4 -2 -9 -7 -15z" />
    <glyph glyph-name="breve" unicode="&#x2d8;" 
d="M160 666c87 0 76 49 117 49c20 0 32 -9 32 -24c0 -59 -73 -116 -159 -116c-83 0 -136 49 -136 103c0 24 12 37 39 37c41 0 20 -49 107 -49z" />
    <glyph glyph-name="dotaccent" unicode="&#x2d9;" 
d="M100 610l7 60c2 21 21 32 63 32c43 0 57 -11 57 -32l-7 -60c-3 -21 -23 -32 -63 -32c-43 0 -57 11 -57 32z" />
    <glyph glyph-name="ring" unicode="&#x2da;" 
d="M149 550c-53 0 -90 38 -90 89c0 61 43 110 111 110c52 0 89 -38 89 -89c0 -61 -40 -110 -110 -110zM156 612c21 0 40 18 40 39c0 19 -14 34 -33 34c-21 0 -40 -19 -40 -41c0 -18 14 -32 33 -32z" />
    <glyph glyph-name="ogonek" unicode="&#x2db;" 
d="M121 14c14 0 19 -7 19 -17c0 -17 -18 -31 -18 -67c0 -40 36 -43 58 -43c30 0 49 14 58 14s11 -8 11 -30c0 -42 -48 -54 -88 -54c-94 0 -108 56 -108 89c0 36 18 108 68 108z" />
    <glyph glyph-name="tilde" unicode="&#x2dc;" horiz-adv-x="365" 
d="M65 603c-20 0 -42 23 -42 44c0 28 53 60 110 60c49 0 82 -17 118 -17c20 0 38 11 51 11c20 0 41 -23 41 -45c0 -28 -53 -61 -110 -61c-51 0 -84 19 -121 19c-19 0 -35 -11 -47 -11z" />
    <glyph glyph-name="hungarumlaut" unicode="&#x2dd;" horiz-adv-x="384" 
d="M196 595c-22 0 -29 3 -29 13c0 11 19 31 77 119c14 21 48 27 88 27c38 0 58 -3 58 -13c0 -13 -4 -11 -116 -121c-12 -12 -31 -25 -78 -25zM14 595c-22 0 -29 3 -29 13c0 11 19 31 77 119c14 21 48 27 88 27c38 0 58 -3 58 -13c0 -13 -4 -11 -116 -121
c-12 -12 -31 -25 -78 -25z" />
    <glyph glyph-name="pi" unicode="&#x3c0;" horiz-adv-x="616" 
d="M106 -2h-13c-38 0 -61 10 -61 22c0 3 2 7 3 11c45 98 91 253 110 375c-57 0 -81 -12 -90 -12c-25 0 -29 39 -29 62c0 56 61 67 163 67h405c22 0 31 -9 31 -30c0 -9 -1 -16 -10 -54c-5 -22 -17 -33 -40 -33h-47l-27 -252c-4 -38 -5 -66 -5 -86c0 -21 1 -33 1 -38
c0 -19 -21 -32 -64 -32h-27c-46 0 -56 42 -56 82c0 14 2 27 3 39l30 287h-93c-19 -124 -67 -293 -111 -379c-10 -20 -38 -29 -73 -29z" />
    <glyph glyph-name="endash" unicode="&#x2013;" horiz-adv-x="500" 
d="M-3 246c0 24 3 73 37 73h444c17 0 26 -11 26 -34s-4 -73 -37 -73h-444c-18 0 -26 10 -26 34z" />
    <glyph glyph-name="emdash" unicode="&#x2014;" horiz-adv-x="1000" 
d="M0 246c0 24 3 73 37 73h937c17 0 26 -11 26 -34s-4 -73 -37 -73h-937c-18 0 -26 10 -26 34z" />
    <glyph glyph-name="quoteleft" unicode="&#x2018;" horiz-adv-x="212" 
d="M138 519c-2 -27 -22 -44 -64 -44h-19c-40 0 -56 17 -56 40c0 85 116 239 163 239c17 0 42 -5 42 -20c0 -32 -51 -75 -66 -215z" />
    <glyph glyph-name="quoteright" unicode="&#x2019;" horiz-adv-x="212" 
d="M74 710c2 27 22 44 64 44h19c40 0 56 -17 56 -40c0 -85 -116 -239 -163 -239c-17 0 -42 5 -42 20c0 32 51 75 66 215z" />
    <glyph glyph-name="quotesinglbase" unicode="&#x201a;" horiz-adv-x="198" 
d="M66 110c2 27 22 44 64 44h19c40 0 56 -17 56 -40c0 -85 -116 -239 -163 -239c-17 0 -42 5 -42 20c0 32 51 75 66 215z" />
    <glyph glyph-name="quotedblleft" unicode="&#x201c;" horiz-adv-x="350" 
d="M295 519c-2 -27 -22 -44 -64 -44h-19c-40 0 -56 17 -56 40c0 85 116 239 163 239c17 0 42 -5 42 -20c0 -32 -51 -75 -66 -215zM118 519c-2 -27 -22 -44 -64 -44h-19c-40 0 -56 17 -56 40c0 85 116 239 163 239c17 0 42 -5 42 -20c0 -32 -51 -75 -66 -215z" />
    <glyph glyph-name="quotedblright" unicode="&#x201d;" horiz-adv-x="350" 
d="M231 710c2 27 22 44 64 44h19c40 0 56 -17 56 -40c0 -85 -116 -239 -163 -239c-17 0 -42 5 -42 20c0 32 51 75 66 215zM54 710c2 27 22 44 64 44h19c40 0 56 -17 56 -40c0 -85 -116 -239 -163 -239c-17 0 -42 5 -42 20c0 32 51 75 66 215z" />
    <glyph glyph-name="quotedblbase" unicode="&#x201e;" horiz-adv-x="336" 
d="M224 110c2 27 22 44 64 44h19c40 0 56 -17 56 -40c0 -85 -116 -239 -163 -239c-17 0 -42 5 -42 20c0 32 51 75 66 215zM47 110c2 27 22 44 64 44h19c40 0 56 -17 56 -40c0 -85 -116 -239 -163 -239c-17 0 -42 5 -42 20c0 32 51 75 66 215z" />
    <glyph glyph-name="dagger" unicode="&#x2020;" horiz-adv-x="535" 
d="M223 410h-135c-17 0 -26 11 -26 34s4 73 37 73h135l16 153c2 21 20 32 54 32h15c36 0 46 -11 46 -32l-16 -153h135c17 0 26 -11 26 -34s-4 -73 -37 -73h-135l-54 -518c-2 -21 -20 -32 -54 -32h-15c-32 0 -47 9 -47 27c0 1 1 3 55 523z" />
    <glyph glyph-name="daggerdbl" unicode="&#x2021;" horiz-adv-x="535" 
d="M196 150l27 260h-135c-17 0 -26 11 -26 34s4 73 37 73h135l16 153c2 21 20 32 54 32h15c36 0 46 -11 46 -32l-16 -153h135c17 0 26 -11 26 -34s-4 -73 -37 -73h-135l-28 -260h136c17 0 26 -11 26 -34s-4 -73 -37 -73h-136l-15 -151c-2 -21 -20 -32 -54 -32h-15
c-32 0 -47 9 -47 27c0 1 2 15 17 156h-135c-17 0 -26 11 -26 34s4 73 37 73h135z" />
    <glyph glyph-name="bullet" unicode="&#x2022;" horiz-adv-x="336" 
d="M34 313c0 73 60 146 147 146c68 0 120 -52 120 -119c0 -79 -62 -146 -147 -146c-69 0 -120 52 -120 119z" />
    <glyph glyph-name="ellipsis" unicode="&#x2026;" horiz-adv-x="617" 
d="M439 30l9 92c2 21 23 32 64 32h32c43 0 56 -12 56 -32l-9 -92c-2 -21 -23 -32 -64 -32h-32c-45 0 -56 10 -56 32zM229 30l9 92c2 21 22 32 64 32h32c43 0 56 -12 56 -32l-9 -92c-2 -21 -23 -32 -64 -32h-32c-45 0 -56 10 -56 32zM19 30l9 92c2 21 22 32 64 32h32
c43 0 56 -12 56 -32l-9 -92c-2 -21 -23 -32 -64 -32h-32c-45 0 -56 10 -56 32z" />
    <glyph glyph-name="perthousand" unicode="&#x2030;" horiz-adv-x="1038" 
d="M182 372c-64 0 -135 24 -135 136c0 167 99 200 170 200c64 0 134 -24 134 -135c0 -167 -97 -201 -169 -201zM90 25l426 650c11 17 25 27 46 27h44c13 0 20 -6 20 -12c0 -4 -2 -9 -6 -15l-426 -650c-11 -17 -25 -27 -46 -27h-44c-14 0 -20 5 -20 12c0 4 2 9 6 15zM190 454
c47 0 58 71 58 111c0 30 -9 57 -40 57c-46 0 -58 -62 -58 -105c0 -32 8 -63 40 -63zM820 -8c-64 0 -134 24 -134 135c0 167 96 201 169 201c64 0 135 -25 135 -137c0 -166 -99 -199 -170 -199zM493 -8c-64 0 -134 24 -134 135c0 167 96 201 169 201c64 0 135 -25 135 -137
c0 -166 -99 -199 -170 -199zM828 74c45 0 58 68 58 108c0 32 -9 60 -40 60c-47 0 -58 -65 -58 -108c0 -31 9 -60 40 -60zM501 74c45 0 58 68 58 108c0 32 -9 60 -40 60c-47 0 -58 -65 -58 -108c0 -31 9 -60 40 -60z" />
    <glyph glyph-name="guilsinglleft" unicode="&#x2039;" horiz-adv-x="300" 
d="M149 61l-111 153c-8 11 -13 20 -12 33c0 24 5 38 21 55l143 153c10 10 19 14 29 14c18 0 54 -25 54 -47c0 -8 -5 -16 -12 -24l-124 -140l95 -140c4 -7 6 -13 6 -19c0 -20 -38 -53 -64 -53c-9 0 -18 5 -25 15z" />
    <glyph glyph-name="guilsinglright" unicode="&#x203a;" horiz-adv-x="300" 
d="M147 454l111 -153c8 -11 12 -20 12 -33c0 -24 -5 -38 -21 -55l-143 -153c-10 -10 -19 -14 -29 -14c-18 0 -54 25 -54 47c0 8 5 16 12 24l124 140l-95 140c-4 7 -6 13 -6 19c0 20 38 53 64 53c9 0 18 -5 25 -15z" />
    <glyph glyph-name="fraction" unicode="&#x2044;" horiz-adv-x="264" 
d="M-117 26l427 648c11 17 26 26 47 26h17c13 0 20 -4 20 -10c0 -5 -2 -9 -7 -16l-427 -648c-13 -19 -27 -26 -47 -26h-17c-13 0 -20 2 -20 9c0 5 2 10 7 17z" />
    <glyph glyph-name="Euro" unicode="&#x20ac;" horiz-adv-x="600" 
d="M434 233h-218c15 -73 59 -110 134 -110c91 0 152 39 163 39c6 0 12 -2 12 -15c0 -7 -1 -47 -10 -95c-9 -49 -138 -60 -179 -60c-178 0 -271 76 -284 241h-40c-15 0 -23 7 -23 23c0 30 8 52 33 52h29c1 26 4 51 7 76h-30c-15 0 -23 7 -23 23c0 30 8 52 33 52h36
c41 144 143 249 342 249c72 0 174 -25 174 -64c0 -27 -50 -96 -75 -96c-9 0 -45 28 -116 28c-79 0 -136 -39 -165 -117h252c13 0 14 -4 14 -13c0 -24 -16 -62 -50 -62h-235c-3 -23 -5 -49 -5 -76h260c13 0 14 -4 14 -13c0 -24 -16 -62 -50 -62z" />
    <glyph glyph-name="trademark" unicode="&#x2122;" horiz-adv-x="772" 
d="M346 323v360c0 12 10 18 34 18h30c16 0 29 -4 35 -15l99 -176l100 176c6 11 20 15 36 15h29c24 0 34 -6 34 -18v-360c0 -12 -10 -18 -34 -18h-16c-24 0 -34 6 -34 18v233l-3 3l-81 -148c-4 -8 -12 -11 -22 -11h-17c-10 0 -18 3 -22 11l-82 148l-2 -3v-233
c0 -12 -10 -18 -34 -18h-16c-24 0 -34 6 -34 18zM129 323v303h-89c-12 0 -17 9 -17 28v18c0 20 5 28 17 28h266c12 0 17 -8 17 -28v-18c0 -19 -5 -28 -17 -28h-89v-303c0 -12 -11 -18 -34 -18h-20c-23 0 -34 6 -34 18z" />
    <glyph glyph-name="Omega" unicode="&#x2126;" horiz-adv-x="731" 
d="M389 576c-118 0 -191 -101 -191 -286c0 -103 35 -161 95 -180c8 -3 11 -9 11 -20c0 -24 -2 -90 -39 -90h-247c-17 0 -24 10 -24 33c0 34 8 98 38 98c33 0 80 -18 80 -18c-47 53 -70 122 -70 201c0 254 149 394 361 394c186 0 287 -101 287 -286
c0 -124 -37 -233 -122 -309c0 0 51 18 84 18c18 0 26 -11 26 -36c0 -26 0 -95 -40 -95h-247c-17 0 -25 10 -25 33c0 9 0 71 21 77c79 23 144 119 144 292c0 114 -49 174 -142 174z" />
    <glyph glyph-name="arrowleft" unicode="&#x2190;" horiz-adv-x="750" 
d="M343 0h-86c-21 0 -36 6 -49 21l-203 226c-5 5 -5 10 -5 18s3 13 8 18l250 225c17 15 32 21 53 21h86c12 0 19 -2 19 -7c-1 -3 -5 -8 -12 -14l-212 -189h532c22 0 28 -13 28 -44c0 -50 -19 -63 -39 -63h-533l174 -191c4 -5 8 -10 8 -13c0 -6 -6 -8 -19 -8z" />
    <glyph glyph-name="arrowup" unicode="&#x2191;" horiz-adv-x="529" 
d="M522 283c-2 -21 -10 -36 -26 -51l-250 -227c-6 -5 -11 -7 -19 -7s-13 2 -17 7l-201 226c-11 12 -16 25 -16 41l9 96c1 12 4 19 9 19c4 0 7 -4 13 -10l169 -192l52 494c2 21 16 32 47 32h19c32 0 41 -12 41 -32l-52 -495l211 194c7 6 12 10 15 10c4 0 5 -4 5 -12
c0 -2 0 -4 -9 -93z" />
    <glyph glyph-name="arrowright" unicode="&#x2192;" horiz-adv-x="750" 
d="M409 529h86c21 0 36 -6 49 -21l203 -226c5 -5 5 -10 5 -18s-3 -13 -8 -18l-250 -225c-17 -15 -32 -21 -53 -21h-86c-12 0 -19 2 -19 7c1 3 5 8 12 14l212 189h-532c-22 0 -28 13 -28 44c0 50 19 63 39 63h533l-174 191c-4 5 -8 10 -8 13c0 6 6 8 19 8z" />
    <glyph glyph-name="arrowdown" unicode="&#x2193;" horiz-adv-x="529" 
d="M6 426c2 21 10 36 26 51l250 227c6 5 11 7 19 7s13 -2 17 -7l201 -226c11 -12 16 -25 16 -41l-9 -96c-1 -12 -4 -19 -9 -19c-4 0 -7 4 -13 10l-169 192l-52 -494c-2 -21 -16 -32 -47 -32h-19c-32 0 -41 12 -41 32l52 495l-211 -194c-7 -6 -12 -10 -15 -10
c-4 0 -5 4 -5 12c0 2 0 4 9 93z" />
    <glyph glyph-name="partialdiff" unicode="&#x2202;" horiz-adv-x="514" 
d="M2 171c0 132 104 258 254 258c28 0 68 -9 94 -26c0 153 -47 208 -125 208c-50 0 -75 -26 -91 -26c-20 0 -47 41 -47 64c0 31 48 85 164 85c152 0 243 -124 243 -324c0 -249 -113 -420 -300 -420c-117 0 -192 74 -192 181zM249 304c-59 0 -105 -58 -105 -119
c0 -46 24 -71 63 -71c59 0 103 47 127 159c-26 22 -50 31 -85 31z" />
    <glyph glyph-name="Delta" unicode="&#x2206;" horiz-adv-x="708" 
d="M25 86c1 17 6 29 14 44l301 553c10 19 24 27 44 27h61c20 0 32 -8 38 -27l185 -553c3 -10 5 -19 5 -29c0 -5 0 -10 -6 -66c-2 -23 -17 -35 -39 -35h-577c-20 0 -31 9 -31 27c0 3 1 5 5 59zM182 130h342l-126 383h-10z" />
    <glyph glyph-name="product" unicode="&#x220f;" horiz-adv-x="750" 
d="M155 570h-79c-18 0 -26 12 -26 40c0 52 9 90 38 90h657c18 0 26 -12 26 -40c0 -52 -9 -90 -38 -90h-84l-67 -642c-2 -21 -23 -32 -64 -32h-24c-45 0 -56 10 -56 32l67 642h-206l-67 -642c-2 -21 -23 -32 -64 -32h-24c-45 0 -56 10 -56 32z" />
    <glyph glyph-name="summation" unicode="&#x2211;" horiz-adv-x="593" 
d="M508 -102h-491c-24 0 -35 9 -35 31c0 42 6 66 19 84l251 290l-184 282c-7 11 -9 21 -9 36l4 39c3 28 17 40 45 40h468c18 0 26 -12 26 -40c0 -52 -9 -90 -38 -90h-313l156 -240c4 -7 6 -13 6 -20c0 -9 -3 -19 -11 -29l-216 -253h334c18 0 26 -12 26 -40
c0 -52 -9 -90 -38 -90z" />
    <glyph glyph-name="minus" unicode="&#x2212;" horiz-adv-x="560" 
d="M26 206c0 24 3 73 37 73h444c17 0 26 -11 26 -34s-4 -73 -37 -73h-444c-18 0 -26 10 -26 34z" />
    <glyph glyph-name="radical" unicode="&#x221a;" horiz-adv-x="618" 
d="M226 371l55 -219c12 -49 17 -114 17 -114h5s16 83 27 115l218 630c7 21 27 31 60 31h29c19 0 42 -3 42 -20c0 -3 -1 -7 -2 -11l-314 -908c-7 -21 -27 -31 -60 -31h-30c-31 0 -52 9 -57 30l-100 383l-42 -15c-6 -2 -11 -3 -16 -3c-14 0 -21 8 -25 24c-10 37 -11 41 -11 44
c0 16 9 27 28 34l133 50c6 2 11 3 16 3c13 0 23 -8 27 -23z" />
    <glyph glyph-name="infinity" unicode="&#x221e;" horiz-adv-x="788" 
d="M194 111c-85 0 -148 63 -148 150c0 109 74 187 191 187c75 0 123 -45 162 -96c72 68 128 96 187 96c93 0 157 -59 157 -147c0 -107 -78 -190 -184 -190c-80 0 -132 46 -175 98c-78 -73 -128 -98 -190 -98zM465 278c25 -31 52 -53 88 -53c33 0 62 27 62 64
c0 29 -17 48 -45 48c-35 0 -64 -16 -105 -59zM224 225c26 0 58 16 100 51c-28 35 -56 61 -93 61c-33 0 -58 -26 -58 -63c0 -29 21 -49 51 -49z" />
    <glyph glyph-name="integral" unicode="&#x222b;" horiz-adv-x="372" 
d="M355 768c-48 0 -71 -45 -83 -163c-18 -168 -22 -335 -41 -519c-18 -168 -88 -257 -203 -257c-28 0 -75 4 -75 45c0 72 12 82 19 82c8 0 20 -11 48 -11c45 0 66 45 79 163c17 164 21 328 41 519c18 168 88 257 203 257c27 0 93 -7 93 -49c0 -38 -24 -75 -40 -75
c-8 0 -18 8 -41 8z" />
    <glyph glyph-name="approxequal" unicode="&#x2248;" horiz-adv-x="547" 
d="M111 279c-21 0 -41 30 -41 51c0 37 92 81 142 81c75 0 119 -42 171 -42c27 0 47 15 65 15c24 0 42 -36 42 -58c0 -40 -100 -78 -143 -78c-76 0 -119 42 -171 42c-36 0 -48 -11 -65 -11zM90 83c-21 0 -41 30 -41 51c0 37 92 81 142 81c75 0 119 -42 171 -42
c27 0 47 15 65 15c24 0 42 -36 42 -58c0 -40 -100 -78 -143 -78c-76 0 -119 42 -171 42c-36 0 -48 -11 -65 -11z" />
    <glyph glyph-name="notequal" unicode="&#x2260;" horiz-adv-x="560" 
d="M47 301c0 24 3 73 37 73h262l40 50c13 17 28 26 49 26h45c13 0 19 -3 19 -10c0 -4 -3 -9 -8 -16l-40 -50h53c17 0 26 -11 26 -34s-4 -73 -37 -73h-127l-58 -74h177c17 0 26 -11 26 -34s-4 -73 -37 -73h-251l-43 -54c-13 -17 -28 -26 -49 -26h-45c-13 0 -19 3 -19 9
c0 5 3 10 8 17l43 54h-64c-18 0 -26 10 -26 34s3 73 37 73h138l58 74h-188c-18 0 -26 10 -26 34z" />
    <glyph glyph-name="lessequal" unicode="&#x2264;" horiz-adv-x="566" 
d="M43 347c0 27 8 60 35 70l438 159c4 1 8 2 11 2c11 0 16 -8 16 -25c0 -29 -5 -79 -39 -92l-304 -96l280 -116c18 -8 25 -24 25 -47c0 -17 -2 -71 -27 -71c-3 0 -6 1 -10 3l-401 180c-16 7 -24 16 -24 33zM11 34c0 24 3 73 37 73h417c17 0 26 -11 26 -34s-4 -73 -37 -73
h-417c-18 0 -26 10 -26 34z" />
    <glyph glyph-name="greaterequal" unicode="&#x2265;" horiz-adv-x="566" 
d="M538 362c0 -27 -8 -60 -35 -70l-438 -159c-4 -1 -8 -2 -11 -2c-11 0 -16 8 -16 25c0 29 5 79 39 92l304 96l-280 116c-18 7 -25 24 -25 47c0 17 2 71 27 71c3 0 6 -1 10 -3l401 -180c16 -7 24 -16 24 -33zM506 73c0 -24 -3 -73 -37 -73h-417c-17 0 -26 11 -26 34
s4 73 37 73h417c18 0 26 -10 26 -34z" />
    <glyph glyph-name="lozenge" unicode="&#x25ca;" horiz-adv-x="558" 
d="M171 17l-127 307c-3 7 -4 13 -4 20c0 9 3 19 9 28l197 313c12 19 34 25 63 25h16c29 0 51 -6 59 -25l131 -313c2 -6 3 -12 3 -18c0 -10 -1 -20 -8 -30l-193 -307c-12 -19 -34 -25 -63 -25h-24c-29 0 -51 6 -59 25zM256 132l126 216l-80 213l-126 -213z" />
    <glyph glyph-name="fi" unicode="&#xfb01;" horiz-adv-x="563" 
d="M240 523h60c14 0 16 -6 16 -20c0 -37 -19 -97 -58 -97h-30l-39 -376c-2 -21 -24 -32 -63 -32h-28c-40 0 -57 15 -57 31l39 377h-20c-18 0 -26 11 -26 36c0 46 9 81 38 81h21l7 75c9 102 68 162 163 162c48 0 96 -8 96 -46c0 -17 -20 -76 -37 -76c-8 0 -13 5 -33 5
c-26 0 -37 -14 -40 -43zM541 723l-9 -82c-2 -21 -24 -32 -63 -32h-28c-40 0 -57 15 -57 31l9 82c2 21 24 32 63 32h28c40 0 57 -15 57 -31zM331 119c0 28 38 374 38 374c2 21 24 32 63 32h28c40 0 57 -15 57 -31c0 0 -37 -342 -37 -352c0 -23 9 -33 30 -33c14 0 25 6 29 6
c6 0 8 -2 8 -11c0 -2 -1 -25 -7 -60c-6 -37 -53 -52 -88 -52c-78 0 -121 37 -121 127z" />
    <glyph glyph-name="fl" unicode="&#xfb02;" horiz-adv-x="591" 
d="M240 523h60c14 0 16 -6 16 -20c0 -37 -19 -97 -58 -97h-30l-39 -376c-2 -21 -24 -32 -63 -32h-28c-40 0 -57 15 -57 31l39 377h-20c-18 0 -26 11 -26 36c0 46 9 81 38 81h21l7 75c9 102 68 162 163 162c48 0 96 -8 96 -46c0 -17 -20 -76 -37 -76c-8 0 -13 5 -33 5
c-26 0 -37 -14 -40 -43zM333 119c0 31 63 606 63 606c3 20 15 30 52 30h48c36 0 47 -11 47 -27c0 0 -61 -582 -61 -586c0 -23 9 -33 30 -33c14 0 25 6 29 6c6 0 8 -2 8 -11c0 -2 -1 -25 -7 -60c-6 -37 -53 -52 -88 -52c-78 0 -121 37 -121 127z" />
    <glyph glyph-name="Agrave" unicode="&#xc0;" horiz-adv-x="613" 
d="M-31 38l291 643c7 16 30 21 59 21h52c29 0 51 -5 55 -21l158 -643c1 -3 3 -14 3 -17c0 -14 -19 -23 -54 -23h-44c-30 0 -50 5 -54 21l-29 122h-242l-55 -122c-7 -15 -24 -21 -48 -21h-40c-39 0 -58 7 -58 20c0 6 2 12 6 20zM301 451l-80 -178h154l-40 178
c-4 13 -8 64 -8 64h-4s-14 -47 -22 -64zM404 775c-47 0 -62 13 -72 25c-82 100 -92 108 -92 118c0 13 20 16 62 16c40 0 72 -6 82 -27c37 -79 53 -105 53 -116c0 -12 -9 -16 -33 -16z" />
    <glyph glyph-name="Aacute" unicode="&#xc1;" horiz-adv-x="613" 
d="M-31 38l291 643c7 16 30 21 59 21h52c29 0 51 -5 55 -21l158 -643c1 -3 3 -14 3 -17c0 -14 -19 -23 -54 -23h-44c-30 0 -50 5 -54 21l-29 122h-242l-55 -122c-7 -15 -24 -21 -48 -21h-40c-39 0 -58 7 -58 20c0 6 2 12 6 20zM301 451l-80 -178h154l-40 178
c-4 13 -8 64 -8 64h-4s-14 -47 -22 -64zM298 775c-22 0 -29 3 -29 13c0 11 19 31 77 119c14 21 48 27 88 27c38 0 58 -3 58 -13c0 -13 -4 -11 -116 -121c-12 -12 -31 -25 -78 -25z" />
    <glyph glyph-name="Acircumflex" unicode="&#xc2;" horiz-adv-x="613" 
d="M-31 38l291 643c7 16 30 21 59 21h52c29 0 51 -5 55 -21l158 -643c1 -3 3 -14 3 -17c0 -14 -19 -23 -54 -23h-44c-30 0 -50 5 -54 21l-29 122h-242l-55 -122c-7 -15 -24 -21 -48 -21h-40c-39 0 -58 7 -58 20c0 6 2 12 6 20zM301 451l-80 -178h154l-40 178
c-4 13 -8 64 -8 64h-4s-14 -47 -22 -64zM214 787l76 102c13 18 34 19 63 19h11c29 0 49 -1 59 -19l54 -102c2 -5 3 -8 3 -12c0 -8 -6 -13 -19 -13h-22c-30 0 -52 5 -64 24l-25 40l-31 -39c-17 -22 -41 -25 -69 -25h-24c-12 0 -19 4 -19 10c0 4 2 9 7 15z" />
    <glyph glyph-name="Atilde" unicode="&#xc3;" horiz-adv-x="613" 
d="M-31 38l291 643c7 16 30 21 59 21h52c29 0 51 -5 55 -21l158 -643c1 -3 3 -14 3 -17c0 -14 -19 -23 -54 -23h-44c-30 0 -50 5 -54 21l-29 122h-242l-55 -122c-7 -15 -24 -21 -48 -21h-40c-39 0 -58 7 -58 20c0 6 2 12 6 20zM301 451l-80 -178h154l-40 178
c-4 13 -8 64 -8 64h-4s-14 -47 -22 -64zM234 783c-20 0 -42 23 -42 44c0 28 53 60 110 60c49 0 82 -17 118 -17c20 0 38 11 51 11c20 0 41 -23 41 -45c0 -28 -53 -61 -110 -61c-51 0 -84 19 -121 19c-19 0 -35 -11 -47 -11z" />
    <glyph glyph-name="Adieresis" unicode="&#xc4;" horiz-adv-x="613" 
d="M-31 38l291 643c7 16 30 21 59 21h52c29 0 51 -5 55 -21l158 -643c1 -3 3 -14 3 -17c0 -14 -19 -23 -54 -23h-44c-30 0 -50 5 -54 21l-29 122h-242l-55 -122c-7 -15 -24 -21 -48 -21h-40c-39 0 -58 7 -58 20c0 6 2 12 6 20zM301 451l-80 -178h154l-40 178
c-4 13 -8 64 -8 64h-4s-14 -47 -22 -64zM378 790l7 60c2 21 21 32 63 32c43 0 57 -11 57 -32l-7 -60c-3 -21 -23 -32 -63 -32c-43 0 -57 11 -57 32zM198 790l7 60c2 21 21 32 63 32c43 0 57 -11 57 -32l-7 -60c-3 -21 -23 -32 -63 -32c-43 0 -57 11 -57 32z" />
    <glyph glyph-name="Aring" unicode="&#xc5;" horiz-adv-x="613" 
d="M-31 38l291 643c7 16 30 21 59 21h52c29 0 51 -5 55 -21l158 -643c1 -3 3 -14 3 -17c0 -14 -19 -23 -54 -23h-44c-30 0 -50 5 -54 21l-29 122h-242l-55 -122c-7 -15 -24 -21 -48 -21h-40c-39 0 -58 7 -58 20c0 6 2 12 6 20zM301 451l-80 -178h154l-40 178
c-4 13 -8 64 -8 64h-4s-14 -47 -22 -64zM341 730c-53 0 -90 38 -90 89c0 61 43 110 111 110c52 0 89 -38 89 -89c0 -61 -40 -110 -110 -110zM348 792c21 0 40 18 40 39c0 19 -14 34 -33 34c-21 0 -40 -19 -40 -41c0 -18 14 -32 33 -32z" />
    <glyph glyph-name="Ccedilla" unicode="&#xc7;" horiz-adv-x="619" 
d="M314 -211c-29 0 -103 5 -103 52c0 40 8 48 14 48c12 0 43 -27 89 -27c18 0 24 6 25 17c-1 24 -48 24 -48 48c0 3 -1 6 25 65c-186 6 -274 97 -274 284c0 230 91 432 375 432c86 0 202 -27 202 -68c0 -27 -50 -96 -75 -96c-12 0 -49 32 -144 32c-128 0 -199 -93 -199 -278
c0 -115 49 -175 150 -175c113 0 187 55 201 55c6 0 12 -2 12 -15c0 -7 -1 -47 -10 -95c-10 -48 -104 -67 -170 -73l-11 -30c45 -11 70 -34 70 -74c0 -67 -49 -102 -129 -102z" />
    <glyph glyph-name="Egrave" unicode="&#xc8;" horiz-adv-x="546" 
d="M149 700h366c18 0 26 -12 26 -40c0 -52 -9 -91 -38 -91h-252l-16 -145h224c18 0 26 -12 26 -40c0 -52 -9 -91 -38 -91h-225l-18 -162h252c18 0 26 -12 26 -40c0 -52 -9 -91 -38 -91h-368c-27 0 -36 8 -36 32c0 6 65 628 65 628c3 28 16 40 44 40zM398 775
c-47 0 -62 13 -72 25c-82 100 -92 108 -92 118c0 13 20 16 62 16c40 0 72 -6 82 -27c37 -79 53 -105 53 -116c0 -12 -9 -16 -33 -16z" />
    <glyph glyph-name="Eacute" unicode="&#xc9;" horiz-adv-x="546" 
d="M149 700h366c18 0 26 -12 26 -40c0 -52 -9 -91 -38 -91h-252l-16 -145h224c18 0 26 -12 26 -40c0 -52 -9 -91 -38 -91h-225l-18 -162h252c18 0 26 -12 26 -40c0 -52 -9 -91 -38 -91h-368c-27 0 -36 8 -36 32c0 6 65 628 65 628c3 28 16 40 44 40zM292 775
c-22 0 -29 3 -29 13c0 11 19 31 77 119c14 21 48 27 88 27c38 0 58 -3 58 -13c0 -13 -4 -11 -116 -121c-12 -12 -31 -25 -78 -25z" />
    <glyph glyph-name="Ecircumflex" unicode="&#xca;" horiz-adv-x="546" 
d="M149 700h366c18 0 26 -12 26 -40c0 -52 -9 -91 -38 -91h-252l-16 -145h224c18 0 26 -12 26 -40c0 -52 -9 -91 -38 -91h-225l-18 -162h252c18 0 26 -12 26 -40c0 -52 -9 -91 -38 -91h-368c-27 0 -36 8 -36 32c0 6 65 628 65 628c3 28 16 40 44 40zM208 787l76 102
c13 18 34 19 63 19h11c29 0 49 -1 59 -19l54 -102c2 -5 3 -8 3 -12c0 -8 -6 -13 -19 -13h-22c-30 0 -52 5 -64 24l-25 40l-31 -39c-17 -22 -41 -25 -69 -25h-24c-12 0 -19 4 -19 10c0 4 2 9 7 15z" />
    <glyph glyph-name="Edieresis" unicode="&#xcb;" horiz-adv-x="546" 
d="M149 700h366c18 0 26 -12 26 -40c0 -52 -9 -91 -38 -91h-252l-16 -145h224c18 0 26 -12 26 -40c0 -52 -9 -91 -38 -91h-225l-18 -162h252c18 0 26 -12 26 -40c0 -52 -9 -91 -38 -91h-368c-27 0 -36 8 -36 32c0 6 65 628 65 628c3 28 16 40 44 40zM372 790l7 60
c2 21 21 32 63 32c43 0 57 -11 57 -32l-7 -60c-3 -21 -23 -32 -63 -32c-43 0 -57 11 -57 32zM192 790l7 60c2 21 21 32 63 32c43 0 57 -11 57 -32l-7 -60c-3 -21 -23 -32 -63 -32c-43 0 -57 11 -57 32z" />
    <glyph glyph-name="Igrave" unicode="&#xcc;" horiz-adv-x="282" 
d="M252 671l-67 -641c-2 -21 -24 -32 -63 -32h-35c-17 0 -57 2 -57 31l67 641c2 21 24 32 63 32h35c17 0 57 -2 57 -31zM258 775c-47 0 -62 13 -72 25c-82 100 -92 108 -92 118c0 13 20 16 62 16c40 0 72 -6 82 -27c37 -79 53 -105 53 -116c0 -12 -9 -16 -33 -16z" />
    <glyph glyph-name="Iacute" unicode="&#xcd;" horiz-adv-x="282" 
d="M252 671l-67 -641c-2 -21 -24 -32 -63 -32h-35c-17 0 -57 2 -57 31l67 641c2 21 24 32 63 32h35c17 0 57 -2 57 -31zM152 775c-22 0 -29 3 -29 13c0 11 19 31 77 119c14 21 48 27 88 27c38 0 58 -3 58 -13c0 -13 -4 -11 -116 -121c-12 -12 -31 -25 -78 -25z" />
    <glyph glyph-name="Icircumflex" unicode="&#xce;" horiz-adv-x="282" 
d="M252 671l-67 -641c-2 -21 -24 -32 -63 -32h-35c-17 0 -57 2 -57 31l67 641c2 21 24 32 63 32h35c17 0 57 -2 57 -31zM68 787l76 102c13 18 34 19 63 19h11c29 0 49 -1 59 -19l54 -102c2 -5 3 -8 3 -12c0 -8 -6 -13 -19 -13h-22c-30 0 -52 5 -64 24l-25 40l-31 -39
c-17 -22 -41 -25 -69 -25h-24c-12 0 -19 4 -19 10c0 4 2 9 7 15z" />
    <glyph glyph-name="Idieresis" unicode="&#xcf;" horiz-adv-x="282" 
d="M252 671l-67 -641c-2 -21 -24 -32 -63 -32h-35c-17 0 -57 2 -57 31l67 641c2 21 24 32 63 32h35c17 0 57 -2 57 -31zM232 790l7 60c2 21 21 32 63 32c43 0 57 -11 57 -32l-7 -60c-3 -21 -23 -32 -63 -32c-43 0 -57 11 -57 32zM52 790l7 60c2 21 21 32 63 32
c43 0 57 -11 57 -32l-7 -60c-3 -21 -23 -32 -63 -32c-43 0 -57 11 -57 32z" />
    <glyph glyph-name="Ntilde" unicode="&#xd1;" horiz-adv-x="719" 
d="M35 30l67 640c2 21 21 32 63 32h43c29 0 51 -4 64 -27l220 -405l42 400c2 21 21 32 63 32h29c43 0 57 -11 57 -32l-67 -640c-2 -21 -21 -32 -63 -32h-38c-29 0 -51 4 -64 27l-225 410l-42 -405c-2 -21 -21 -32 -63 -32h-29c-43 0 -57 11 -57 32zM302 783
c-20 0 -42 23 -42 44c0 28 53 60 110 60c49 0 82 -17 118 -17c20 0 38 11 51 11c20 0 41 -23 41 -45c0 -28 -53 -61 -110 -61c-51 0 -84 19 -121 19c-19 0 -35 -11 -47 -11z" />
    <glyph glyph-name="Ograve" unicode="&#xd2;" horiz-adv-x="731" 
d="M41 284c0 212 99 424 362 424c186 0 286 -104 286 -294c0 -271 -127 -422 -361 -422c-186 0 -287 103 -287 292zM342 123c114 0 189 98 189 277c0 115 -48 176 -142 176c-116 0 -189 -98 -189 -278c0 -114 48 -175 142 -175zM477 775c-47 0 -62 13 -72 25
c-82 100 -92 108 -92 118c0 13 20 16 62 16c40 0 72 -6 82 -27c37 -79 53 -105 53 -116c0 -12 -9 -16 -33 -16z" />
    <glyph glyph-name="Oacute" unicode="&#xd3;" horiz-adv-x="731" 
d="M41 284c0 212 99 424 362 424c186 0 286 -104 286 -294c0 -271 -127 -422 -361 -422c-186 0 -287 103 -287 292zM342 123c114 0 189 98 189 277c0 115 -48 176 -142 176c-116 0 -189 -98 -189 -278c0 -114 48 -175 142 -175zM371 775c-22 0 -29 3 -29 13
c0 11 19 31 77 119c14 21 48 27 88 27c38 0 58 -3 58 -13c0 -13 -4 -11 -116 -121c-12 -12 -31 -25 -78 -25z" />
    <glyph glyph-name="Ocircumflex" unicode="&#xd4;" horiz-adv-x="731" 
d="M41 284c0 212 99 424 362 424c186 0 286 -104 286 -294c0 -271 -127 -422 -361 -422c-186 0 -287 103 -287 292zM342 123c114 0 189 98 189 277c0 115 -48 176 -142 176c-116 0 -189 -98 -189 -278c0 -114 48 -175 142 -175zM287 787l76 102c13 18 34 19 63 19h11
c29 0 49 -1 59 -19l54 -102c2 -5 3 -8 3 -12c0 -8 -6 -13 -19 -13h-22c-30 0 -52 5 -64 24l-25 40l-31 -39c-17 -22 -41 -25 -69 -25h-24c-12 0 -19 4 -19 10c0 4 2 9 7 15z" />
    <glyph glyph-name="Otilde" unicode="&#xd5;" horiz-adv-x="731" 
d="M41 284c0 212 99 424 362 424c186 0 286 -104 286 -294c0 -271 -127 -422 -361 -422c-186 0 -287 103 -287 292zM342 123c114 0 189 98 189 277c0 115 -48 176 -142 176c-116 0 -189 -98 -189 -278c0 -114 48 -175 142 -175zM307 783c-20 0 -42 23 -42 44
c0 28 53 60 110 60c49 0 82 -17 118 -17c20 0 38 11 51 11c20 0 41 -23 41 -45c0 -28 -53 -61 -110 -61c-51 0 -84 19 -121 19c-19 0 -35 -11 -47 -11z" />
    <glyph glyph-name="Odieresis" unicode="&#xd6;" horiz-adv-x="731" 
d="M41 284c0 212 99 424 362 424c186 0 286 -104 286 -294c0 -271 -127 -422 -361 -422c-186 0 -287 103 -287 292zM342 123c114 0 189 98 189 277c0 115 -48 176 -142 176c-116 0 -189 -98 -189 -278c0 -114 48 -175 142 -175zM451 790l7 60c2 21 21 32 63 32
c43 0 57 -11 57 -32l-7 -60c-3 -21 -23 -32 -63 -32c-43 0 -57 11 -57 32zM271 790l7 60c2 21 21 32 63 32c43 0 57 -11 57 -32l-7 -60c-3 -21 -23 -32 -63 -32c-43 0 -57 11 -57 32z" />
    <glyph glyph-name="Scaron" unicode="&#x160;" horiz-adv-x="500" 
d="M309 708c104 0 173 -36 173 -68c0 -26 -40 -89 -64 -89c-13 0 -42 25 -109 25c-87 0 -99 -44 -99 -66c0 -101 258 -69 258 -269s-139 -249 -250 -249c-64 0 -192 20 -192 78c0 101 15 111 26 111c18 0 63 -58 154 -58c43 0 101 14 101 80c0 105 -258 73 -258 272
c0 179 137 233 260 233zM452 906l-76 -102c-13 -18 -34 -19 -63 -19h-11c-29 0 -49 1 -59 19l-54 102c-2 5 -3 8 -3 12c0 8 6 13 19 13h22c29 0 52 -6 64 -24l25 -40l31 39c17 22 41 24 69 25h24c12 0 19 -4 19 -10c0 -4 -2 -9 -7 -15z" />
    <glyph glyph-name="Ugrave" unicode="&#xd9;" horiz-adv-x="712" 
d="M98 670c2 21 23 32 64 32h34c43 0 56 -12 56 -32c-45 -431 -45 -436 -45 -441c0 -62 49 -106 124 -106c80 0 143 51 150 121l44 426c2 21 23 32 64 32h33c43 0 56 -12 56 -32l-45 -436c-16 -154 -134 -242 -316 -242c-169 0 -266 75 -266 209c0 20 1 21 47 469zM457 775
c-47 0 -62 13 -72 25c-82 100 -92 108 -92 118c0 13 20 16 62 16c40 0 72 -6 82 -27c37 -79 53 -105 53 -116c0 -12 -9 -16 -33 -16z" />
    <glyph glyph-name="Uacute" unicode="&#xda;" horiz-adv-x="712" 
d="M98 670c2 21 23 32 64 32h34c43 0 56 -12 56 -32c-45 -431 -45 -436 -45 -441c0 -62 49 -106 124 -106c80 0 143 51 150 121l44 426c2 21 23 32 64 32h33c43 0 56 -12 56 -32l-45 -436c-16 -154 -134 -242 -316 -242c-169 0 -266 75 -266 209c0 20 1 21 47 469zM351 775
c-22 0 -29 3 -29 13c0 11 19 31 77 119c14 21 48 27 88 27c38 0 58 -3 58 -13c0 -13 -4 -11 -116 -121c-12 -12 -31 -25 -78 -25z" />
    <glyph glyph-name="Ucircumflex" unicode="&#xdb;" horiz-adv-x="712" 
d="M98 670c2 21 23 32 64 32h34c43 0 56 -12 56 -32c-45 -431 -45 -436 -45 -441c0 -62 49 -106 124 -106c80 0 143 51 150 121l44 426c2 21 23 32 64 32h33c43 0 56 -12 56 -32l-45 -436c-16 -154 -134 -242 -316 -242c-169 0 -266 75 -266 209c0 20 1 21 47 469zM267 787
l76 102c13 18 34 19 63 19h11c29 0 49 -1 59 -19l54 -102c2 -5 3 -8 3 -12c0 -8 -6 -13 -19 -13h-22c-30 0 -52 5 -64 24l-25 40l-31 -39c-17 -22 -41 -25 -69 -25h-24c-12 0 -19 4 -19 10c0 4 2 9 7 15z" />
    <glyph glyph-name="Udieresis" unicode="&#xdc;" horiz-adv-x="712" 
d="M98 670c2 21 23 32 64 32h34c43 0 56 -12 56 -32c-45 -431 -45 -436 -45 -441c0 -62 49 -106 124 -106c80 0 143 51 150 121l44 426c2 21 23 32 64 32h33c43 0 56 -12 56 -32l-45 -436c-16 -154 -134 -242 -316 -242c-169 0 -266 75 -266 209c0 20 1 21 47 469zM431 790
l7 60c2 21 21 32 63 32c43 0 57 -11 57 -32l-7 -60c-3 -21 -23 -32 -63 -32c-43 0 -57 11 -57 32zM251 790l7 60c2 21 21 32 63 32c43 0 57 -11 57 -32l-7 -60c-3 -21 -23 -32 -63 -32c-43 0 -57 11 -57 32z" />
    <glyph glyph-name="Ydieresis" unicode="&#x178;" horiz-adv-x="559" 
d="M171 30l32 306l-165 321c-4 8 -6 15 -6 21c0 23 32 24 64 24h43c29 0 51 -4 58 -19l100 -214l145 214c10 15 33 19 62 19h36c23 0 61 -2 61 -20c0 -6 -4 -15 -11 -25l-233 -324l-32 -303c-2 -21 -21 -32 -63 -32h-34c-43 0 -57 11 -57 32zM365 790l7 60c2 21 21 32 63 32
c43 0 57 -11 57 -32l-7 -60c-3 -21 -23 -32 -63 -32c-43 0 -57 11 -57 32zM185 790l7 60c2 21 21 32 63 32c43 0 57 -11 57 -32l-7 -60c-3 -21 -23 -32 -63 -32c-43 0 -57 11 -57 32z" />
    <glyph glyph-name="Yacute" unicode="&#xdd;" horiz-adv-x="559" 
d="M171 30l32 306l-165 321c-4 8 -6 15 -6 21c0 23 32 24 64 24h43c29 0 51 -4 58 -19l100 -214l145 214c10 15 33 19 62 19h36c23 0 61 -2 61 -20c0 -6 -4 -15 -11 -25l-233 -324l-32 -303c-2 -21 -21 -32 -63 -32h-34c-43 0 -57 11 -57 32zM285 775c-22 0 -29 3 -29 13
c0 11 19 31 77 119c14 21 48 27 88 27c38 0 58 -3 58 -13c0 -13 -4 -11 -116 -121c-12 -12 -31 -25 -78 -25z" />
    <glyph glyph-name="Zcaron" unicode="&#x17d;" horiz-adv-x="616" 
d="M601 598l-382 -467h305c18 0 26 -12 26 -40c0 -52 -9 -91 -38 -91h-479c-19 0 -32 59 -32 87c0 8 1 13 3 15l381 467h-278c-18 0 -26 12 -26 40c0 52 9 91 38 91h453c19 0 32 -59 32 -87c0 -8 -1 -13 -3 -15zM507 883l-76 -102c-13 -18 -34 -19 -63 -19h-11
c-29 0 -49 1 -59 19l-54 102c-2 5 -3 8 -3 12c0 8 6 13 19 13h22c29 0 52 -6 64 -24l25 -40l31 39c17 22 41 24 69 25h24c12 0 19 -4 19 -10c0 -4 -2 -9 -7 -15z" />
    <glyph glyph-name="agrave" unicode="&#xe0;" horiz-adv-x="545" 
d="M437 -8c-61 0 -101 22 -115 75c-29 -43 -78 -76 -136 -76c-97 0 -162 76 -162 217c0 192 91 322 222 322c57 0 100 -33 121 -53c11 36 14 46 65 47h12c40 0 58 -9 58 -25c0 -4 -37 -341 -37 -358c0 -23 9 -32 30 -32c14 0 25 6 29 6c6 0 8 -2 8 -11c0 -2 -1 -25 -7 -60
c-6 -37 -53 -52 -88 -52zM242 112c32 0 58 27 78 58c16 178 12 147 26 216c-17 15 -38 27 -66 27c-67 0 -106 -68 -106 -196c0 -69 22 -105 68 -105zM359 595c-47 0 -62 13 -72 25c-82 100 -92 108 -92 118c0 13 20 16 62 16c40 0 72 -6 82 -27c37 -79 53 -105 53 -116
c0 -12 -9 -16 -33 -16z" />
    <glyph glyph-name="aacute" unicode="&#xe1;" horiz-adv-x="545" 
d="M437 -8c-61 0 -101 22 -115 75c-29 -43 -78 -76 -136 -76c-97 0 -162 76 -162 217c0 192 91 322 222 322c57 0 100 -33 121 -53c11 36 14 46 65 47h12c40 0 58 -9 58 -25c0 -4 -37 -341 -37 -358c0 -23 9 -32 30 -32c14 0 25 6 29 6c6 0 8 -2 8 -11c0 -2 -1 -25 -7 -60
c-6 -37 -53 -52 -88 -52zM242 112c32 0 58 27 78 58c16 178 12 147 26 216c-17 15 -38 27 -66 27c-67 0 -106 -68 -106 -196c0 -69 22 -105 68 -105zM253 595c-22 0 -29 3 -29 13c0 11 19 31 77 119c14 21 48 27 88 27c38 0 58 -3 58 -13c0 -13 -4 -11 -116 -121
c-12 -12 -31 -25 -78 -25z" />
    <glyph glyph-name="acircumflex" unicode="&#xe2;" horiz-adv-x="545" 
d="M437 -8c-61 0 -101 22 -115 75c-29 -43 -78 -76 -136 -76c-97 0 -162 76 -162 217c0 192 91 322 222 322c57 0 100 -33 121 -53c11 36 14 46 65 47h12c40 0 58 -9 58 -25c0 -4 -37 -341 -37 -358c0 -23 9 -32 30 -32c14 0 25 6 29 6c6 0 8 -2 8 -11c0 -2 -1 -25 -7 -60
c-6 -37 -53 -52 -88 -52zM242 112c32 0 58 27 78 58c16 178 12 147 26 216c-17 15 -38 27 -66 27c-67 0 -106 -68 -106 -196c0 -69 22 -105 68 -105zM169 607l76 102c13 18 34 19 63 19h11c29 0 49 -1 59 -19l54 -102c2 -5 3 -8 3 -12c0 -8 -6 -13 -19 -13h-22
c-30 0 -52 5 -64 24l-25 40l-31 -39c-17 -22 -41 -25 -69 -25h-24c-12 0 -19 4 -19 10c0 4 2 9 7 15z" />
    <glyph glyph-name="atilde" unicode="&#xe3;" horiz-adv-x="545" 
d="M437 -8c-61 0 -101 22 -115 75c-29 -43 -78 -76 -136 -76c-97 0 -162 76 -162 217c0 192 91 322 222 322c57 0 100 -33 121 -53c11 36 14 46 65 47h12c40 0 58 -9 58 -25c0 -4 -37 -341 -37 -358c0 -23 9 -32 30 -32c14 0 25 6 29 6c6 0 8 -2 8 -11c0 -2 -1 -25 -7 -60
c-6 -37 -53 -52 -88 -52zM242 112c32 0 58 27 78 58c16 178 12 147 26 216c-17 15 -38 27 -66 27c-67 0 -106 -68 -106 -196c0 -69 22 -105 68 -105zM189 603c-20 0 -42 23 -42 44c0 28 53 60 110 60c49 0 82 -17 118 -17c20 0 38 11 51 11c20 0 41 -23 41 -45
c0 -28 -53 -61 -110 -61c-51 0 -84 19 -121 19c-19 0 -35 -11 -47 -11z" />
    <glyph glyph-name="adieresis" unicode="&#xe4;" horiz-adv-x="545" 
d="M437 -8c-61 0 -101 22 -115 75c-29 -43 -78 -76 -136 -76c-97 0 -162 76 -162 217c0 192 91 322 222 322c57 0 100 -33 121 -53c11 36 14 46 65 47h12c40 0 58 -9 58 -25c0 -4 -37 -341 -37 -358c0 -23 9 -32 30 -32c14 0 25 6 29 6c6 0 8 -2 8 -11c0 -2 -1 -25 -7 -60
c-6 -37 -53 -52 -88 -52zM242 112c32 0 58 27 78 58c16 178 12 147 26 216c-17 15 -38 27 -66 27c-67 0 -106 -68 -106 -196c0 -69 22 -105 68 -105zM333 610l7 60c2 21 21 32 63 32c43 0 57 -11 57 -32l-7 -60c-3 -21 -23 -32 -63 -32c-43 0 -57 11 -57 32zM153 610l7 60
c2 21 21 32 63 32c43 0 57 -11 57 -32l-7 -60c-3 -21 -23 -32 -63 -32c-43 0 -57 11 -57 32z" />
    <glyph glyph-name="aring" unicode="&#xe5;" horiz-adv-x="545" 
d="M437 -8c-61 0 -101 22 -115 75c-29 -43 -78 -76 -136 -76c-97 0 -162 76 -162 217c0 192 91 322 222 322c57 0 100 -33 121 -53c11 36 14 46 65 47h12c40 0 58 -9 58 -25c0 -4 -37 -341 -37 -358c0 -23 9 -32 30 -32c14 0 25 6 29 6c6 0 8 -2 8 -11c0 -2 -1 -25 -7 -60
c-6 -37 -53 -52 -88 -52zM242 112c32 0 58 27 78 58c16 178 12 147 26 216c-17 15 -38 27 -66 27c-67 0 -106 -68 -106 -196c0 -69 22 -105 68 -105zM296 550c-53 0 -90 38 -90 89c0 61 43 110 111 110c52 0 89 -38 89 -89c0 -61 -40 -110 -110 -110zM303 612
c21 0 40 18 40 39c0 19 -14 34 -33 34c-21 0 -40 -19 -40 -41c0 -18 14 -32 33 -32z" />
    <glyph glyph-name="ccedilla" unicode="&#xe7;" horiz-adv-x="485" 
d="M242 -207c-29 0 -103 5 -103 52c0 40 8 48 14 48c12 0 43 -27 89 -27c18 0 24 6 25 17c-1 24 -48 24 -48 48c0 3 -1 7 23 62c-141 5 -209 73 -209 211c0 174 69 327 280 327c48 0 157 -11 158 -69c0 -19 -34 -76 -55 -76c-5 0 -9 3 -16 7c-15 8 -38 21 -82 21
c-89 0 -132 -65 -132 -195c0 -74 28 -110 93 -110c58 0 100 20 124 32c10 5 17 8 21 8s7 0 7 -14c0 -4 -3 -60 -8 -77c-13 -36 -64 -54 -112 -61l-10 -28c45 -11 70 -34 70 -74c0 -67 -49 -102 -129 -102z" />
    <glyph glyph-name="egrave" unicode="&#xe8;" horiz-adv-x="539" 
d="M288 109c80 0 144 44 155 44c4 0 8 0 8 -14c-1 -4 -3 -61 -8 -77c-16 -55 -119 -70 -174 -70c-163 0 -236 85 -236 220c0 231 127 319 275 319c163 0 194 -93 194 -145c0 -133 -116 -183 -215 -183c-44 0 -76 3 -104 7c4 -82 46 -101 105 -101zM298 414
c-62 0 -94 -50 -108 -112h48c94 0 120 36 120 65c0 33 -25 47 -60 47zM379 595c-47 0 -62 13 -72 25c-82 100 -92 108 -92 118c0 13 20 16 62 16c40 0 72 -6 82 -27c37 -79 53 -105 53 -116c0 -12 -9 -16 -33 -16z" />
    <glyph glyph-name="eacute" unicode="&#xe9;" horiz-adv-x="539" 
d="M288 109c80 0 144 44 155 44c4 0 8 0 8 -14c-1 -4 -3 -61 -8 -77c-16 -55 -119 -70 -174 -70c-163 0 -236 85 -236 220c0 231 127 319 275 319c163 0 194 -93 194 -145c0 -133 -116 -183 -215 -183c-44 0 -76 3 -104 7c4 -82 46 -101 105 -101zM298 414
c-62 0 -94 -50 -108 -112h48c94 0 120 36 120 65c0 33 -25 47 -60 47zM273 595c-22 0 -29 3 -29 13c0 11 19 31 77 119c14 21 48 27 88 27c38 0 58 -3 58 -13c0 -13 -4 -11 -116 -121c-12 -12 -31 -25 -78 -25z" />
    <glyph glyph-name="ecircumflex" unicode="&#xea;" horiz-adv-x="539" 
d="M288 109c80 0 144 44 155 44c4 0 8 0 8 -14c-1 -4 -3 -61 -8 -77c-16 -55 -119 -70 -174 -70c-163 0 -236 85 -236 220c0 231 127 319 275 319c163 0 194 -93 194 -145c0 -133 -116 -183 -215 -183c-44 0 -76 3 -104 7c4 -82 46 -101 105 -101zM298 414
c-62 0 -94 -50 -108 -112h48c94 0 120 36 120 65c0 33 -25 47 -60 47zM189 607l76 102c13 18 34 19 63 19h11c29 0 49 -1 59 -19l54 -102c2 -5 3 -8 3 -12c0 -8 -6 -13 -19 -13h-22c-30 0 -52 5 -64 24l-25 40l-31 -39c-17 -22 -41 -25 -69 -25h-24c-12 0 -19 4 -19 10
c0 4 2 9 7 15z" />
    <glyph glyph-name="edieresis" unicode="&#xeb;" horiz-adv-x="539" 
d="M288 109c80 0 144 44 155 44c4 0 8 0 8 -14c-1 -4 -3 -61 -8 -77c-16 -55 -119 -70 -174 -70c-163 0 -236 85 -236 220c0 231 127 319 275 319c163 0 194 -93 194 -145c0 -133 -116 -183 -215 -183c-44 0 -76 3 -104 7c4 -82 46 -101 105 -101zM298 414
c-62 0 -94 -50 -108 -112h48c94 0 120 36 120 65c0 33 -25 47 -60 47zM353 610l7 60c2 21 21 32 63 32c43 0 57 -11 57 -32l-7 -60c-3 -21 -23 -32 -63 -32c-43 0 -57 11 -57 32zM173 610l7 60c2 21 21 32 63 32c43 0 57 -11 57 -32l-7 -60c-3 -21 -23 -32 -63 -32
c-43 0 -57 11 -57 32z" />
    <glyph glyph-name="igrave" unicode="&#xec;" horiz-adv-x="265" 
d="M29 119c0 28 38 374 38 374c2 21 24 32 63 32h28c40 0 57 -15 57 -31c0 0 -37 -342 -37 -352c0 -23 9 -33 30 -33c14 0 25 6 29 6c6 0 8 -2 8 -11c0 -2 -1 -25 -7 -60c-6 -37 -53 -52 -88 -52c-78 0 -121 37 -121 127zM215 595c-47 0 -62 13 -72 25
c-82 100 -92 108 -92 118c0 13 20 16 62 16c40 0 72 -6 82 -27c37 -79 53 -105 53 -116c0 -12 -9 -16 -33 -16z" />
    <glyph glyph-name="iacute" unicode="&#xed;" horiz-adv-x="265" 
d="M29 119c0 28 38 374 38 374c2 21 24 32 63 32h28c40 0 57 -15 57 -31c0 0 -37 -342 -37 -352c0 -23 9 -33 30 -33c14 0 25 6 29 6c6 0 8 -2 8 -11c0 -2 -1 -25 -7 -60c-6 -37 -53 -52 -88 -52c-78 0 -121 37 -121 127zM109 595c-22 0 -29 3 -29 13c0 11 19 31 77 119
c14 21 48 27 88 27c38 0 58 -3 58 -13c0 -13 -4 -11 -116 -121c-12 -12 -31 -25 -78 -25z" />
    <glyph glyph-name="icircumflex" unicode="&#xee;" horiz-adv-x="265" 
d="M29 119c0 28 38 374 38 374c2 21 24 32 63 32h28c40 0 57 -15 57 -31c0 0 -37 -342 -37 -352c0 -23 9 -33 30 -33c14 0 25 6 29 6c6 0 8 -2 8 -11c0 -2 -1 -25 -7 -60c-6 -37 -53 -52 -88 -52c-78 0 -121 37 -121 127zM25 607l76 102c13 18 34 19 63 19h11
c29 0 49 -1 59 -19l54 -102c2 -5 3 -8 3 -12c0 -8 -6 -13 -19 -13h-22c-30 0 -52 5 -64 24l-25 40l-31 -39c-17 -22 -41 -25 -69 -25h-24c-12 0 -19 4 -19 10c0 4 2 9 7 15z" />
    <glyph glyph-name="idieresis" unicode="&#xef;" horiz-adv-x="265" 
d="M29 119c0 28 38 374 38 374c2 21 24 32 63 32h28c40 0 57 -15 57 -31c0 0 -37 -342 -37 -352c0 -23 9 -33 30 -33c14 0 25 6 29 6c6 0 8 -2 8 -11c0 -2 -1 -25 -7 -60c-6 -37 -53 -52 -88 -52c-78 0 -121 37 -121 127zM189 610l7 60c2 21 21 32 63 32c43 0 57 -11 57 -32
l-7 -60c-3 -21 -23 -32 -63 -32c-43 0 -57 11 -57 32zM9 610l7 60c2 21 21 32 63 32c43 0 57 -11 57 -32l-7 -60c-3 -21 -23 -32 -63 -32c-43 0 -57 11 -57 32z" />
    <glyph glyph-name="ntilde" unicode="&#xf1;" horiz-adv-x="557" 
d="M470 142c0 -23 9 -33 30 -33c14 0 25 6 29 6c6 0 8 -2 8 -11c0 -2 -1 -25 -7 -60c-6 -37 -53 -52 -88 -52c-78 0 -121 37 -121 127c0 24 23 226 23 240c0 32 -15 50 -54 50s-70 -33 -88 -61c-11 -132 -32 -318 -32 -318c-2 -21 -24 -32 -63 -32h-28c-40 0 -57 15 -57 31
l34 328c3 29 4 54 4 71c0 24 -2 41 -2 56c0 22 51 36 116 36c28 0 30 -32 32 -68c32 40 95 79 157 79c89 0 132 -40 132 -127c0 -22 -25 -245 -25 -262zM200 603c-20 0 -42 23 -42 44c0 28 53 60 110 60c49 0 82 -17 118 -17c20 0 38 11 51 11c20 0 41 -23 41 -45
c0 -28 -53 -61 -110 -61c-51 0 -84 19 -121 19c-19 0 -35 -11 -47 -11z" />
    <glyph glyph-name="ograve" unicode="&#xf2;" horiz-adv-x="569" 
d="M33 211c0 163 65 320 274 320c143 0 217 -77 217 -220c0 -205 -105 -319 -274 -319c-143 0 -217 77 -217 219zM262 109c69 0 111 68 111 195c0 73 -24 110 -78 110c-70 0 -112 -68 -112 -196c0 -72 25 -109 79 -109zM375 595c-47 0 -62 13 -72 25
c-82 100 -92 108 -92 118c0 13 20 16 62 16c40 0 72 -6 82 -27c37 -79 53 -105 53 -116c0 -12 -9 -16 -33 -16z" />
    <glyph glyph-name="oacute" unicode="&#xf3;" horiz-adv-x="569" 
d="M33 211c0 163 65 320 274 320c143 0 217 -77 217 -220c0 -205 -105 -319 -274 -319c-143 0 -217 77 -217 219zM262 109c69 0 111 68 111 195c0 73 -24 110 -78 110c-70 0 -112 -68 -112 -196c0 -72 25 -109 79 -109zM269 595c-22 0 -29 3 -29 13c0 11 19 31 77 119
c14 21 48 27 88 27c38 0 58 -3 58 -13c0 -13 -4 -11 -116 -121c-12 -12 -31 -25 -78 -25z" />
    <glyph glyph-name="ocircumflex" unicode="&#xf4;" horiz-adv-x="569" 
d="M33 211c0 163 65 320 274 320c143 0 217 -77 217 -220c0 -205 -105 -319 -274 -319c-143 0 -217 77 -217 219zM262 109c69 0 111 68 111 195c0 73 -24 110 -78 110c-70 0 -112 -68 -112 -196c0 -72 25 -109 79 -109zM185 607l76 102c13 18 34 19 63 19h11
c29 0 49 -1 59 -19l54 -102c2 -5 3 -8 3 -12c0 -8 -6 -13 -19 -13h-22c-30 0 -52 5 -64 24l-25 40l-31 -39c-17 -22 -41 -25 -69 -25h-24c-12 0 -19 4 -19 10c0 4 2 9 7 15z" />
    <glyph glyph-name="otilde" unicode="&#xf5;" horiz-adv-x="569" 
d="M33 211c0 163 65 320 274 320c143 0 217 -77 217 -220c0 -205 -105 -319 -274 -319c-143 0 -217 77 -217 219zM262 109c69 0 111 68 111 195c0 73 -24 110 -78 110c-70 0 -112 -68 -112 -196c0 -72 25 -109 79 -109zM205 603c-20 0 -42 23 -42 44c0 28 53 60 110 60
c49 0 82 -17 118 -17c20 0 38 11 51 11c20 0 41 -23 41 -45c0 -28 -53 -61 -110 -61c-51 0 -84 19 -121 19c-19 0 -35 -11 -47 -11z" />
    <glyph glyph-name="odieresis" unicode="&#xf6;" horiz-adv-x="569" 
d="M33 211c0 163 65 320 274 320c143 0 217 -77 217 -220c0 -205 -105 -319 -274 -319c-143 0 -217 77 -217 219zM262 109c69 0 111 68 111 195c0 73 -24 110 -78 110c-70 0 -112 -68 -112 -196c0 -72 25 -109 79 -109zM349 610l7 60c2 21 21 32 63 32c43 0 57 -11 57 -32
l-7 -60c-3 -21 -23 -32 -63 -32c-43 0 -57 11 -57 32zM169 610l7 60c2 21 21 32 63 32c43 0 57 -11 57 -32l-7 -60c-3 -21 -23 -32 -63 -32c-43 0 -57 11 -57 32z" />
    <glyph glyph-name="scaron" unicode="&#x161;" horiz-adv-x="413" 
d="M251 415c-36 0 -57 -12 -57 -40c0 -65 178 -37 178 -187c0 -126 -87 -196 -206 -196c-31 0 -144 7 -144 61c0 87 16 90 22 90c9 0 51 -34 110 -34c44 0 66 17 66 50c0 77 -178 39 -178 187c0 122 85 185 198 185c55 0 146 -13 146 -61c0 -19 -33 -75 -53 -75
c-13 0 -31 20 -82 20zM375 703l-76 -102c-13 -18 -34 -19 -63 -19h-11c-29 0 -49 1 -59 19l-54 102c-2 5 -3 8 -3 12c0 8 6 13 19 13h22c29 0 52 -6 64 -24l25 -40l31 39c17 22 41 24 69 25h24c12 0 19 -4 19 -10c0 -4 -2 -9 -7 -15z" />
    <glyph glyph-name="ugrave" unicode="&#xf9;" horiz-adv-x="557" 
d="M436 -8c-63 0 -103 24 -116 80c-35 -41 -96 -80 -160 -80c-90 0 -132 40 -132 127c0 35 37 374 37 374c2 21 24 32 63 32h28c40 0 57 -15 57 -31c0 0 -34 -318 -34 -331c0 -31 15 -49 54 -49c38 0 68 29 86 54c10 109 34 325 34 325c2 21 24 32 63 32h28
c40 0 57 -15 57 -31c0 0 -37 -342 -37 -352c0 -23 9 -33 30 -33c14 0 25 6 29 6c6 0 8 -2 8 -11c0 -2 -1 -25 -7 -60c-6 -37 -53 -52 -88 -52zM350 595c-47 0 -62 13 -72 25c-82 100 -92 108 -92 118c0 13 20 16 62 16c40 0 72 -6 82 -27c37 -79 53 -105 53 -116
c0 -12 -9 -16 -33 -16z" />
    <glyph glyph-name="uacute" unicode="&#xfa;" horiz-adv-x="557" 
d="M436 -8c-63 0 -103 24 -116 80c-35 -41 -96 -80 -160 -80c-90 0 -132 40 -132 127c0 35 37 374 37 374c2 21 24 32 63 32h28c40 0 57 -15 57 -31c0 0 -34 -318 -34 -331c0 -31 15 -49 54 -49c38 0 68 29 86 54c10 109 34 325 34 325c2 21 24 32 63 32h28
c40 0 57 -15 57 -31c0 0 -37 -342 -37 -352c0 -23 9 -33 30 -33c14 0 25 6 29 6c6 0 8 -2 8 -11c0 -2 -1 -25 -7 -60c-6 -37 -53 -52 -88 -52zM244 595c-22 0 -29 3 -29 13c0 11 19 31 77 119c14 21 48 27 88 27c38 0 58 -3 58 -13c0 -13 -4 -11 -116 -121
c-12 -12 -31 -25 -78 -25z" />
    <glyph glyph-name="ucircumflex" unicode="&#xfb;" horiz-adv-x="557" 
d="M436 -8c-63 0 -103 24 -116 80c-35 -41 -96 -80 -160 -80c-90 0 -132 40 -132 127c0 35 37 374 37 374c2 21 24 32 63 32h28c40 0 57 -15 57 -31c0 0 -34 -318 -34 -331c0 -31 15 -49 54 -49c38 0 68 29 86 54c10 109 34 325 34 325c2 21 24 32 63 32h28
c40 0 57 -15 57 -31c0 0 -37 -342 -37 -352c0 -23 9 -33 30 -33c14 0 25 6 29 6c6 0 8 -2 8 -11c0 -2 -1 -25 -7 -60c-6 -37 -53 -52 -88 -52zM160 607l76 102c13 18 34 19 63 19h11c29 0 49 -1 59 -19l54 -102c2 -5 3 -8 3 -12c0 -8 -6 -13 -19 -13h-22c-30 0 -52 5 -64 24
l-25 40l-31 -39c-17 -22 -41 -25 -69 -25h-24c-12 0 -19 4 -19 10c0 4 2 9 7 15z" />
    <glyph glyph-name="udieresis" unicode="&#xfc;" horiz-adv-x="557" 
d="M436 -8c-63 0 -103 24 -116 80c-35 -41 -96 -80 -160 -80c-90 0 -132 40 -132 127c0 35 37 374 37 374c2 21 24 32 63 32h28c40 0 57 -15 57 -31c0 0 -34 -318 -34 -331c0 -31 15 -49 54 -49c38 0 68 29 86 54c10 109 34 325 34 325c2 21 24 32 63 32h28
c40 0 57 -15 57 -31c0 0 -37 -342 -37 -352c0 -23 9 -33 30 -33c14 0 25 6 29 6c6 0 8 -2 8 -11c0 -2 -1 -25 -7 -60c-6 -37 -53 -52 -88 -52zM324 610l7 60c2 21 21 32 63 32c43 0 57 -11 57 -32l-7 -60c-3 -21 -23 -32 -63 -32c-43 0 -57 11 -57 32zM144 610l7 60
c2 21 21 32 63 32c43 0 57 -11 57 -32l-7 -60c-3 -21 -23 -32 -63 -32c-43 0 -57 11 -57 32z" />
    <glyph glyph-name="yacute" unicode="&#xfd;" horiz-adv-x="481" 
d="M144 0c-116 490 -117 495 -117 499c0 16 16 26 64 26h32c27 0 50 -5 54 -21l39 -185c5 -23 11 -78 16 -121h4c13 43 31 99 40 121l79 185c7 16 28 21 58 21h24c41 0 58 -8 58 -21c0 -5 -3 -12 -5 -19l-300 -670c-7 -16 -29 -21 -58 -21h-17c-40 0 -58 7 -58 20
c0 5 2 12 6 19zM228 595c-22 0 -29 3 -29 13c0 11 19 31 77 119c14 21 48 27 88 27c38 0 58 -3 58 -13c0 -13 -4 -11 -116 -121c-12 -12 -31 -25 -78 -25z" />
    <glyph glyph-name="ydieresis" unicode="&#xff;" horiz-adv-x="481" 
d="M144 0c-116 490 -117 495 -117 499c0 16 16 26 64 26h32c27 0 50 -5 54 -21l39 -185c5 -23 11 -78 16 -121h4c13 43 31 99 40 121l79 185c7 16 28 21 58 21h24c41 0 58 -8 58 -21c0 -5 -3 -12 -5 -19l-300 -670c-7 -16 -29 -21 -58 -21h-17c-40 0 -58 7 -58 20
c0 5 2 12 6 19zM308 610l7 60c2 21 21 32 63 32c43 0 57 -11 57 -32l-7 -60c-3 -21 -23 -32 -63 -32c-43 0 -57 11 -57 32zM128 610l7 60c2 21 21 32 63 32c43 0 57 -11 57 -32l-7 -60c-3 -21 -23 -32 -63 -32c-43 0 -57 11 -57 32z" />
    <glyph glyph-name="zcaron" unicode="&#x17e;" horiz-adv-x="489" 
d="M468 431l-261 -314h207c18 0 26 -11 26 -36c0 -46 -9 -81 -38 -81h-371c-13 0 -24 46 -24 73c0 9 1 16 4 19l261 314h-188c-18 0 -26 11 -26 36c0 46 9 81 38 81h352c13 0 24 -46 24 -73c0 -9 -1 -16 -4 -19zM419 703l-76 -102c-13 -18 -34 -19 -63 -19h-11
c-29 0 -49 1 -59 19l-54 102c-2 5 -3 8 -3 12c0 8 6 13 19 13h22c29 0 52 -6 64 -24l25 -40l31 39c17 22 41 24 69 25h24c12 0 19 -4 19 -10c0 -4 -2 -9 -7 -15z" />
  </font>
</defs>
</svg>
